<svg width="1728" height="603" viewBox="0 0 1728 603" fill="none" xmlns="http://www.w3.org/2000/svg">
<g opacity="0.51" clip-path="url(#clip0_442_1154)">
<g opacity="0.12">
<path d="M715.448 362.114C686.135 362.114 654.941 357.507 618.056 347.789C519.872 321.918 448.1 251.621 378.664 183.66C352.064 157.599 324.561 130.717 296.38 107.243C247.476 66.353 198.121 39.0297 137.877 39.0297C90.6694 39.0297 36.831 55.8149 -28.7249 96.011L-28.8003 95.7586C8.31041 72.9787 41.9172 57.4555 73.904 48.3056C103.856 39.7237 131.548 36.8842 158.562 39.7869C183.126 42.3741 206.786 49.6939 230.861 62.062C251.47 72.6632 272.945 87.366 296.455 107.054C324.636 130.465 352.14 157.41 378.739 183.47C448.175 251.431 519.948 321.728 618.094 347.599C677.32 363.249 755.459 375.491 834.88 331.383C885.818 303.113 935.622 258.12 982.908 197.731C1038.55 126.679 1096.05 69.5712 1153.84 27.9868C1207.53 -10.695 1261.22 -35.8727 1313.48 -46.8526C1334.83 -51.3329 1355.75 -53.6046 1376.28 -53.6046C1426.31 -53.6046 1474.01 -40.1638 1520.85 -13.0298C1588.02 25.9043 1654.51 93.6131 1724.07 193.946L1723.95 194.198C1606.97 25.3995 1497.52 -53.3522 1376.43 -53.3522C1355.82 -53.3522 1334.88 -51.0804 1313.51 -46.5371C1204.67 -23.5679 1090.39 60.9893 983.061 197.985C958.644 229.157 933.444 256.417 908.082 279.008C884.273 300.21 859.671 317.942 834.993 331.698C800.067 351.133 763.446 361.104 723.058 362.177C720.497 362.114 717.972 362.114 715.448 362.114Z" fill="#666666"/>
<path d="M679.015 373.788C664.096 373.788 648.385 372.778 631.468 370.822C581.812 365.017 535.395 346.781 485.362 313.525C441.206 284.183 401.194 247.773 358.809 209.28C340.159 192.306 320.832 174.763 301.315 158.042C204.112 74.2412 118.964 43.1318 -28.6117 132.359L-28.687 131.79C9.13954 108.947 43.1608 93.7398 75.2606 85.3473C105.288 77.5226 133.056 75.8188 160.182 80.1729C184.596 84.0852 208.482 92.9196 233.198 107.244C253.844 119.17 275.545 135.198 301.466 157.537C320.982 174.258 340.309 191.801 358.959 208.775C443.089 285.255 522.51 357.445 631.506 370.191C689.904 377.006 766.612 377.258 842.189 318.132C890.188 280.523 938.376 229.915 985.392 167.569C1041.83 92.7302 1101.02 36.7586 1161.34 1.23192C1189.14 -15.1746 1217.14 -27.1011 1244.53 -34.2316C1270.79 -41.0467 1296.67 -43.5707 1321.46 -41.6145C1394.86 -35.8722 1459.13 -13.534 1523.74 28.6184C1589.23 71.3385 1655.65 134.756 1732.81 228.148L1732.62 228.59C1581.73 45.9714 1466.48 -29.6251 1321.46 -40.9835C1315.85 -41.4252 1310.2 -41.6777 1304.55 -41.6777C1200.67 -41.6777 1088.14 32.089 985.662 168.074C938.637 230.42 890.415 281.153 842.378 318.699C809.638 344.319 774.675 360.6 735.491 368.424C717.52 372.021 698.984 373.788 679.015 373.788Z" fill="#666666"/>
<path d="M618.998 395.366C514.448 395.366 430.28 319.896 341.516 240.261C330.024 229.975 318.157 219.311 306.289 208.899C214.661 127.686 131.85 73.1655 -28.423 168.703L-28.6113 167.883C45.4216 123.71 105.929 108.755 161.765 120.618C212.099 131.346 256.029 163.339 306.515 208.079C318.383 218.49 330.251 229.154 341.741 239.439C430.431 318.949 514.56 394.419 618.998 394.419C627.513 394.419 636.141 393.914 644.919 392.904C716.051 384.512 785.224 371.45 849.537 305.067C894.333 258.812 939.618 203.977 987.921 137.53C1043.34 61.3022 1104.23 8.61188 1168.87 -19.09C1221.59 -41.6807 1275.65 -47.486 1329.49 -36.1908C1396.7 -22.1821 1457.62 8.04396 1527.02 61.7439C1592.16 112.163 1659.87 179.555 1741.63 262.472L1741.36 263.229C1577.7 97.2706 1470.25 -5.96476 1329.45 -35.3704C1244.3 -53.1652 1115.98 -37.4529 988.263 138.161C939.924 204.67 894.634 259.507 849.801 305.76C820.225 336.302 786.919 358.009 747.963 372.145C712.321 385.08 676.115 390.066 644.957 393.788C636.178 394.861 627.513 395.366 618.998 395.366Z" fill="#666666"/>
<path d="M613.158 420.926C569.153 420.926 525.035 409.188 479.484 385.525C420.447 354.858 363.744 306.9 311.262 259.7C205.43 163.721 129.777 112.103 -28.2349 205.117L-28.4609 204.043C46.5516 159.935 107.511 146.305 163.422 161.197C216.582 175.331 261.982 213.76 311.601 258.753C418.789 355.173 525.976 439.794 658.369 415.689C739.711 400.923 804.627 360.473 856.883 292.007C899.419 236.289 941.049 177.918 990.477 107.497C1046.5 27.6723 1109.12 -22.7464 1176.52 -42.3713C1242.98 -61.6806 1300.81 -46.7884 1337.59 -30.8235C1435.58 11.5812 1512.06 81.8141 1608.89 170.726C1650.19 208.65 1696.98 251.623 1750.4 296.804L1750.1 297.813C1696.63 252.57 1649.84 209.597 1608.55 171.734C1511.77 82.8869 1435.32 12.7171 1337.4 -29.6876C1265.89 -60.6708 1125.81 -83.8294 990.9 108.38C941.427 178.865 899.796 237.172 857.26 292.954C804.928 361.547 739.862 402.058 658.407 416.887C643.299 419.537 628.229 420.926 613.158 420.926Z" fill="#666666"/>
<path d="M592.964 452.978C559.584 452.978 525.939 445.911 491.465 431.777C438.23 409.943 382.545 371.451 316.198 310.494C212.589 214.516 137.69 145.166 -28.084 241.459L-28.3477 240.134C48.6617 195.458 108.302 183.532 165.043 201.642C218.956 218.806 266.428 262.789 316.649 309.295C455.222 436.572 561.392 475.191 671.745 438.402C750.336 412.214 815.101 358.515 864.155 278.942C902.061 217.418 946.404 146.112 992.97 77.4568C1049.79 -6.27985 1114.06 -54.3638 1184.09 -65.4066C1252.06 -76.134 1309.48 -49.5679 1345.69 -25.3999C1411.92 18.8349 1466.59 72.3457 1524.46 129.012C1587.91 191.104 1659.79 261.526 1759.22 331.128L1758.88 332.453C1659.37 262.789 1587.46 192.366 1524.01 130.273C1466.17 73.6708 1411.54 20.16 1345.35 -24.0116C1286.95 -63.0088 1135.72 -131.096 993.537 78.5927C947.007 147.248 902.655 218.554 864.758 280.078C815.553 359.84 750.675 413.602 671.895 439.917C645.56 448.561 619.337 452.978 592.964 452.978Z" fill="#666666"/>
<path d="M576.236 489.262C495.986 489.262 412.835 447.109 321.17 361.354L313.108 353.718C205.43 251.998 134.261 184.794 -27.9339 277.807L-28.2729 276.167C134.373 182.901 205.694 250.231 313.635 352.205L321.698 359.84C455.145 484.782 570.621 516.964 685.156 461.119C762.241 423.51 824.933 357.82 871.5 265.881C916.074 177.915 955.476 108.44 995.526 47.3571C1053.17 -40.5443 1119.14 -86.2305 1191.64 -88.3759C1193.4 -88.439 1195.17 -88.439 1196.91 -88.439C1268.15 -88.439 1325.57 -45.845 1353.79 -20.0361C1400.92 23.0628 1441.39 69.0643 1480.49 113.551C1556.41 199.875 1634.89 289.102 1768 365.329L1767.65 366.971C1634.44 290.679 1555.88 201.327 1479.89 115.003C1440.78 70.5788 1400.39 24.5773 1353.3 -18.4585C1307.38 -60.4216 1145.97 -179.685 996.21 48.6823C956.16 109.702 916.785 179.115 872.255 267.016C825.574 359.209 762.693 425.088 685.42 462.759C649.289 480.365 613.082 489.262 576.236 489.262Z" fill="#666666"/>
<path d="M562.485 528.64C546.85 528.64 531.176 526.998 515.39 523.779C454.28 511.16 390.608 473.614 326.145 412.152C319.213 405.527 312.468 398.964 305.837 392.591C200.835 291.059 131.474 224.045 -27.782 314.217L-28.1587 312.324C46.9669 269.793 104.686 259.507 159.015 278.943C209.35 296.991 252.187 338.386 306.44 390.887C313.033 397.259 319.777 403.823 326.71 410.449C456.767 534.382 581.851 559.055 698.457 483.9C773.093 435.815 835.446 355.928 878.736 252.945C918.639 158.039 957.663 80.9912 998.019 17.3842C1056.56 -74.8715 1124.15 -118.096 1199.02 -111.155C1254.7 -105.918 1314.08 -70.7067 1361.89 -14.5456C1397.8 27.6067 1428.72 69.5698 1458.64 110.081C1540.89 221.583 1618.61 326.901 1776.78 399.658L1776.47 401.615C1618.08 328.732 1540.29 223.286 1457.93 111.659C1428.05 71.1474 1397.11 29.2473 1361.25 -12.905C1270.79 -119.169 1121.6 -174.636 998.883 18.8355C958.608 82.3164 919.611 159.301 879.79 254.08C836.35 357.38 773.846 437.519 698.985 485.73C654.64 514.315 608.901 528.64 562.485 528.64Z" fill="#666666"/>
<path d="M552.124 570.917C543.873 570.917 535.583 570.476 527.295 569.529C462.606 562.208 396.597 526.368 331.117 463.012C320.116 452.285 309.604 441.874 299.469 431.777C193.299 326.396 129.213 262.789 -27.6318 350.565L-28.084 348.356C45.9866 306.897 102.689 297.243 155.737 316.994C205.016 335.357 246.987 377.005 300.11 429.758C310.283 439.854 320.756 450.266 331.758 460.93C461.438 586.44 592.888 602.216 711.831 506.553C785.262 447.489 845.467 355.297 886.044 239.819C922.59 135.764 960.039 53.163 1000.54 -12.7789C1059.16 -108.253 1130.34 -150.216 1206.32 -134.062C1288.35 -116.708 1348.14 -40.9224 1370.06 -9.18204C1399.27 33.1596 1424.55 73.9237 1448.95 113.363C1537.69 256.668 1607.76 369.811 1785.55 433.858L1785.25 436.13C1703.57 406.725 1639.11 364.826 1582.44 304.247C1531.28 249.6 1490.81 184.227 1447.98 115.066C1423.57 75.6273 1398.32 34.9265 1369.16 -7.41518C1296.49 -112.796 1137.27 -232.122 1001.52 -11.1382C961.092 54.6775 923.724 137.152 887.25 240.956C846.56 356.812 786.128 449.319 712.471 508.572C661.007 550.031 607.206 570.917 552.124 570.917Z" fill="#666666"/>
<path d="M544.249 615.28C542.516 615.28 540.784 615.28 539.088 615.217C471.196 613.575 402.89 579.438 336.053 513.812C321.095 499.108 307.193 484.91 293.78 471.154C190.021 365.269 127.405 301.346 -27.4809 386.912L-27.9707 384.452C127.593 298.443 190.436 362.619 294.571 468.946C308.022 482.638 321.886 496.836 336.844 511.54C466.976 639.322 604.908 645.632 725.206 529.334C797.544 459.417 855.677 354.793 893.353 226.885C926.775 113.364 962.64 25.1469 1003.07 -42.7512C1051.63 -124.405 1107.73 -165.296 1169.56 -164.412C1255.99 -163.151 1333.97 -80.5495 1378.17 -3.62776C1403.3 40.1021 1425 81.4973 1445.98 121.504C1535.53 292.259 1600.23 415.687 1794.29 468.189L1794.07 470.712C1704.47 446.481 1636.32 404.96 1579.46 340.09C1527.47 280.775 1489.19 207.702 1444.85 123.145C1423.86 83.1379 1402.16 41.7428 1377.07 -1.924C1333.11 -78.3408 1255.49 -160.564 1169.56 -161.826C1168.91 -161.826 1168.24 -161.826 1167.6 -161.826C1106.9 -161.826 1051.93 -121.124 1004.19 -40.9212C963.882 26.7875 928.089 114.815 894.747 228.083C856.959 356.497 798.598 461.437 725.997 531.67C668.58 587.137 607.469 615.28 544.249 615.28Z" fill="#666666"/>
<path d="M538.447 661.153C471.761 661.153 405.414 628.719 340.988 564.607C322.188 545.866 305.158 528.008 288.694 510.655C187.233 403.948 125.935 339.584 -27.3304 423.321L-27.8579 420.608C126.161 336.429 187.723 401.11 289.636 508.257C306.101 525.548 323.092 543.405 341.893 562.147C475.001 694.661 615.871 691.127 738.581 552.176C808.96 472.478 866.528 352.331 900.666 213.947C931.032 90.8352 965.349 -2.93478 1005.59 -72.789C1053.74 -156.337 1109.57 -196.533 1171.48 -192.304C1263.18 -185.994 1344.52 -83.7689 1386.31 1.86099C1408.83 47.9887 1428.24 91.2769 1447 133.114C1532.83 324.566 1594.88 462.887 1803.03 502.451L1802.84 505.291C1593.94 465.6 1531.73 326.838 1445.61 134.818C1426.84 92.9807 1407.44 49.7556 1384.95 3.62782C1343.39 -81.4971 1262.5 -183.219 1171.36 -189.466C1109.92 -193.693 1054.57 -153.812 1006.79 -70.8329C966.708 -1.29413 932.499 92.2236 902.205 215.021C867.922 353.972 810.128 474.498 739.485 554.511C680.749 621.021 617.265 656.736 550.768 660.775C546.699 661.028 542.592 661.153 538.447 661.153Z" fill="#666666"/>
<path d="M534.943 708.545C471.271 708.545 407.373 677.308 345.999 615.469C323.432 592.75 303.539 571.171 284.286 550.346C184.822 442.631 124.804 377.636 -27.1419 459.732L-27.707 456.703C125.106 374.165 185.425 439.475 285.341 547.696C304.556 568.52 324.449 590.039 346.978 612.755C444.974 711.51 549.373 731.766 648.913 671.251C764.955 600.703 861.819 424.899 908.01 201.012C935.775 66.4152 970.587 -37.7668 1011.5 -108.694C1047.45 -171.039 1088.22 -207.954 1132.6 -218.492C1181.01 -229.977 1233.72 -209.532 1285.03 -159.302C1327.49 -117.78 1367.39 -57.013 1394.51 7.41444C1415.35 56.8866 1433.17 103.014 1450.43 147.565C1535.08 366.341 1590.99 510.908 1811.89 536.78L1811.74 539.935C1589.9 513.937 1533.81 368.864 1448.85 149.268C1431.63 104.718 1413.81 58.6535 1392.97 9.1813C1340.23 -116.14 1236.32 -239.884 1132.86 -215.399C1038.67 -193.061 961.551 -48.7465 909.819 201.958C863.439 426.73 766.16 603.289 649.591 674.153C611.803 697.122 573.41 708.545 534.943 708.545Z" fill="#666666"/>
</g>
</g>
<defs>
<clipPath id="clip0_442_1154">
<rect width="1728" height="603" fill="white"/>
</clipPath>
</defs>
</svg>
