<svg width="55" height="66" viewBox="0 0 55 66" fill="none" xmlns="http://www.w3.org/2000/svg">
<path fill-rule="evenodd" clip-rule="evenodd" d="M9.99387 1.46447C10.9316 0.526784 12.2033 0 13.5294 0H50C52.7614 0 55 2.23858 55 5V60.3125C55 63.0739 52.7614 65.3125 50 65.3125H5C2.23858 65.3125 0 63.0739 0 60.3125V13.5294C0 12.2033 0.526784 10.9316 1.46447 9.99387L9.99387 1.46447ZM6.53614 6.538C7.92899 5.1435 10.3125 6.12995 10.3125 8.1009C10.3125 9.32233 9.32234 10.3125 8.1009 10.3125C6.13122 10.3125 5.14419 7.9316 6.53614 6.538ZM5.72917 22.3438C5.72917 22.0273 5.98567 21.7708 6.30208 21.7708H47.5521C47.8685 21.7708 48.125 22.0273 48.125 22.3438C48.125 22.6602 47.8685 22.9167 47.5521 22.9167H6.30208C5.98567 22.9167 5.72917 22.6602 5.72917 22.3438ZM48.125 40.6771C48.125 40.3607 47.8685 40.1042 47.5521 40.1042H6.30208C5.98567 40.1042 5.72917 40.3607 5.72917 40.6771C5.72917 40.9935 5.98567 41.25 6.30208 41.25H47.5521C47.8685 41.25 48.125 40.9935 48.125 40.6771ZM5.72917 31.5104C5.72917 31.194 5.98567 30.9375 6.30208 30.9375H47.5521C47.8685 30.9375 48.125 31.194 48.125 31.5104C48.125 31.8268 47.8685 32.0833 47.5521 32.0833H6.30208C5.98567 32.0833 5.72917 31.8268 5.72917 31.5104ZM48.125 49.8438C48.125 49.5273 47.8685 49.2708 47.5521 49.2708H6.30208C5.98567 49.2708 5.72917 49.5273 5.72917 49.8438C5.72917 50.1602 5.98567 50.4167 6.30208 50.4167H47.5521C47.8685 50.4167 48.125 50.1602 48.125 49.8438ZM5.72917 26.9271C5.72917 26.6107 5.98567 26.3542 6.30208 26.3542H47.5521C47.8685 26.3542 48.125 26.6107 48.125 26.9271C48.125 27.2435 47.8685 27.5 47.5521 27.5H6.30208C5.98567 27.5 5.72917 27.2435 5.72917 26.9271ZM48.125 45.2604C48.125 44.944 47.8685 44.6875 47.5521 44.6875H6.30208C5.98567 44.6875 5.72917 44.944 5.72917 45.2604C5.72917 45.5768 5.98567 45.8333 6.30208 45.8333H47.5521C47.8685 45.8333 48.125 45.5768 48.125 45.2604ZM5.72917 36.0938C5.72917 35.7773 5.98567 35.5208 6.30208 35.5208H47.5521C47.8685 35.5208 48.125 35.7773 48.125 36.0938C48.125 36.4102 47.8685 36.6667 47.5521 36.6667H6.30208C5.98567 36.6667 5.72917 36.4102 5.72917 36.0938ZM48.125 54.4271C48.125 54.1107 47.8685 53.8542 47.5521 53.8542H6.30208C5.98567 53.8542 5.72917 54.1107 5.72917 54.4271C5.72917 54.7435 5.98567 55 6.30208 55H47.5521C47.8685 55 48.125 54.7435 48.125 54.4271ZM5.72917 24.6354C5.72917 24.319 5.98567 24.0625 6.30208 24.0625H47.5521C47.8685 24.0625 48.125 24.319 48.125 24.6354C48.125 24.9518 47.8685 25.2083 47.5521 25.2083H6.30208C5.98567 25.2083 5.72917 24.9518 5.72917 24.6354ZM48.125 42.9688C48.125 42.6523 47.8685 42.3958 47.5521 42.3958H6.30208C5.98567 42.3958 5.72917 42.6523 5.72917 42.9688C5.72917 43.2852 5.98567 43.5417 6.30208 43.5417H47.5521C47.8685 43.5417 48.125 43.2852 48.125 42.9688ZM5.72917 33.8021C5.72917 33.4857 5.98567 33.2292 6.30208 33.2292H47.5521C47.8685 33.2292 48.125 33.4857 48.125 33.8021C48.125 34.1185 47.8685 34.375 47.5521 34.375H6.30208C5.98567 34.375 5.72917 34.1185 5.72917 33.8021ZM48.125 52.1354C48.125 51.819 47.8685 51.5625 47.5521 51.5625H6.30208C5.98567 51.5625 5.72917 51.819 5.72917 52.1354C5.72917 52.4518 5.98567 52.7083 6.30208 52.7083H47.5521C47.8685 52.7083 48.125 52.4518 48.125 52.1354ZM5.72917 29.2188C5.72917 28.9023 5.98567 28.6458 6.30208 28.6458H47.5521C47.8685 28.6458 48.125 28.9023 48.125 29.2188C48.125 29.5352 47.8685 29.7917 47.5521 29.7917H6.30208C5.98567 29.7917 5.72917 29.5352 5.72917 29.2188ZM48.125 47.5521C48.125 47.2357 47.8685 46.9792 47.5521 46.9792H6.30208C5.98567 46.9792 5.72917 47.2357 5.72917 47.5521C5.72917 47.8685 5.98567 48.125 6.30208 48.125H47.5521C47.8685 48.125 48.125 47.8685 48.125 47.5521ZM5.72917 38.3854C5.72917 38.069 5.98567 37.8125 6.30208 37.8125H47.5521C47.8685 37.8125 48.125 38.069 48.125 38.3854C48.125 38.7018 47.8685 38.9583 47.5521 38.9583H6.30208C5.98567 38.9583 5.72917 38.7018 5.72917 38.3854ZM48.125 56.7188C48.125 56.4023 47.8685 56.1458 47.5521 56.1458H6.30208C5.98567 56.1458 5.72917 56.4023 5.72917 56.7188C5.72917 57.0352 5.98567 57.2917 6.30208 57.2917H47.5521C47.8685 57.2917 48.125 57.0352 48.125 56.7188Z" fill="#3B5998"/>
</svg>
