<svg width="57" height="64" viewBox="0 0 57 64" fill="none" xmlns="http://www.w3.org/2000/svg">
<path d="M2.67022 21.9507C-0.711161 20.0479 -0.730921 15.1862 2.63488 13.2559L23.2819 1.41505C24.8117 0.5377 26.6906 0.531171 28.2266 1.39786L54.4573 16.1995C56.0284 17.0861 57.0001 18.7502 57.0001 20.5541V38.2704C57.0001 39.7779 55.778 41 54.2705 41C52.7629 41 51.5408 39.7779 51.5408 38.2704V29.0684C51.5408 25.2524 47.4383 22.8429 44.1056 24.7015L28.1957 33.574C26.6759 34.4215 24.8248 34.4179 23.3083 33.5646L2.67022 21.9507Z" fill="#3B5998"/>
<path d="M2.00007 40.5C2.00007 38.1031 2.35132 35.7899 3.00406 33.6114C3.80124 30.9508 6.92554 30.0826 9.34608 31.4447L23.2323 39.259C24.7839 40.1321 26.6826 40.1143 28.2176 39.2123L40.7064 31.8736C43.1543 30.4352 46.3632 31.3213 47.1248 34.0565C47.6949 36.1041 48.0001 38.2656 48.0001 40.5C48.0001 53.4786 37.7027 64 25.0001 64C12.2974 64 2.00007 53.4786 2.00007 40.5Z" fill="#3B5998"/>
</svg>
