<svg width="93" height="65" viewBox="0 0 93 65" fill="none" xmlns="http://www.w3.org/2000/svg">
<path fill-rule="evenodd" clip-rule="evenodd" d="M64.346 27.4782C64.4806 28.4634 64.5772 29.4608 64.6342 30.4688H66.0643L66.0526 30.4793L60.5399 35.4025C60.5634 35.1131 60.5833 34.8227 60.5995 34.5312H47.5104V42.7099C51.2927 42.927 54.9009 43.7969 58.2252 45.2092C59.0908 43.0616 59.7413 40.8033 60.1498 38.4613L64.3111 38.0433C63.8611 41.1806 63.0253 44.1927 61.8537 47.0294C63.7348 48.1266 65.4957 49.4088 67.1118 50.8512C70.5277 46.7925 72.832 41.759 73.5527 36.2251C74.5966 35.7157 75.5548 35.1207 76.3914 34.539C76.8842 34.1962 77.3627 33.8384 77.8226 33.474C77.5958 41.2139 74.6756 48.2748 69.9709 53.743L69.8974 53.8281C63.9669 60.6733 55.2307 65 45.4887 65C28.557 65 14.6637 51.9305 13.2577 35.2849C13.688 35.6341 14.1398 35.9771 14.6067 36.3018C15.5296 36.9436 16.5883 37.568 17.7143 38.0066C18.6712 42.9061 20.8804 47.3546 23.9932 51.0018C25.5872 49.5591 27.3248 48.2735 29.1817 47.1691C27.5444 43.2499 26.5493 38.993 26.3287 34.5312H21.0599C20.7596 34.185 20.4406 33.7476 20.1859 33.2627C19.998 32.9048 19.8663 32.5631 19.7897 32.2424C20.9549 31.7723 22.0523 31.1758 23.0447 30.4688H26.3432C26.4215 29.0856 26.5742 27.7225 26.7974 26.3834C27.6481 24.8708 28.1352 23.1681 28.1352 21.3281C28.1352 21.1991 28.1328 21.0707 28.1282 20.9431C28.4668 19.9031 28.8494 18.8832 29.2736 17.8854C28.4291 17.3869 27.6091 16.851 26.8159 16.2799C25.5915 14.087 23.5962 12.2979 21.178 11.0593C27.1065 4.27931 35.8002 0 45.4887 0C51.6285 0 57.3688 1.71859 62.259 4.7031C61.2597 5.66082 60.3886 6.72615 59.6794 7.8893C57.4897 6.61203 55.1138 5.6213 52.6026 4.9682C54.6811 6.88841 56.5426 9.04199 58.146 11.3876C57.8033 12.5994 57.6193 13.8841 57.6193 15.2344C57.6193 20.3895 60.389 24.6355 64.346 27.4782ZM47.5104 30.4688H60.5832C60.3452 26.722 59.4944 23.1427 58.1305 19.8308C54.8324 21.2196 51.2568 22.0751 47.5104 22.2901V30.4688ZM30.3779 34.5312H43.4669V42.7282C39.6968 42.979 36.1033 43.8787 32.796 45.3173C31.4291 41.9599 30.5887 38.33 30.3779 34.5312ZM43.4669 30.4688H30.3941C30.6347 26.6817 31.5014 23.0656 32.8912 19.7239C36.1722 21.1384 39.733 22.0234 43.4669 22.2718V30.4688ZM47.5104 18.2199C50.623 18.0155 53.5982 17.3056 56.3556 16.1712C54.1208 12.1978 51.1021 8.72846 47.5104 5.97504V18.2199ZM43.4669 5.97504V18.199C40.3716 17.9633 37.4153 17.2274 34.678 16.0715C36.9071 12.1398 39.9054 8.70543 43.4669 5.97504ZM43.4669 46.801C40.3249 47.0403 37.3263 47.7949 34.5544 48.981C36.7958 53.0046 39.8391 56.5162 43.4669 59.2974V46.801ZM47.5104 59.2974C51.1686 56.493 54.2324 52.9458 56.479 48.88C53.687 47.7157 50.6694 46.9876 47.5104 46.7801V59.2974ZM31.0681 14.2303C33.0095 10.7653 35.482 7.64071 38.3748 4.9682C34.0069 6.1042 30.0482 8.2617 26.7664 11.1719C28.0526 12.3124 29.5902 13.3372 31.0681 14.2303ZM37.9679 59.9227C35.1939 57.2828 32.8223 54.2206 30.9549 50.8384C29.5191 51.7153 28.0197 52.7168 26.7664 53.8281C29.946 56.6477 33.761 58.7607 37.9679 59.9227ZM53.0095 59.9227C57.2489 58.7517 61.0902 56.615 64.2845 53.7627C62.9876 52.6207 61.586 51.5958 60.0961 50.7045C58.2176 54.1398 55.82 57.2481 53.0095 59.9227Z" fill="#3B5998"/>
<path fill-rule="evenodd" clip-rule="evenodd" d="M68.739 33.5156C70.0676 32.3291 72.2498 29.4792 71.6818 26.6056C65.8201 24.8424 61.6628 20.416 61.6628 15.2344C61.6628 8.5034 68.6778 3.04688 77.3314 3.04688C85.9849 3.04688 93 8.5034 93 15.2344C93 21.6672 86.5926 26.936 78.4712 27.3901C78.1969 27.6803 77.8949 27.9873 77.5696 28.3031C76.9421 28.9122 76.228 29.5543 75.4589 30.1722C74.1948 31.1877 72.7819 32.1378 71.3604 32.7692C70.4788 33.1608 69.5938 33.4297 68.739 33.5156ZM72.6735 14.8781C72.7441 14.6713 72.7824 14.4495 72.7824 14.2188C72.7824 13.0969 71.8773 12.1875 70.7607 12.1875L70.742 12.1876C69.634 12.1976 68.7389 13.1032 68.7389 14.2188C68.7389 15.3406 69.6441 16.25 70.7607 16.25C71.6475 16.25 72.401 15.6763 72.6735 14.8781ZM76.8259 16.25C77.9425 16.25 78.8477 15.3406 78.8477 14.2188C78.8477 13.0969 77.9425 12.1875 76.8259 12.1875C75.7094 12.1875 74.8042 13.0969 74.8042 14.2188C74.8042 15.3406 75.7094 16.25 76.8259 16.25ZM84.913 14.2188C84.913 15.3406 84.0078 16.25 82.8912 16.25C81.7746 16.25 80.8695 15.3406 80.8695 14.2188C80.8695 13.0969 81.7746 12.1875 82.8912 12.1875C84.0078 12.1875 84.913 13.0969 84.913 14.2188Z" fill="#3B5998"/>
<path fill-rule="evenodd" clip-rule="evenodd" d="M0 21.3281C0 26.6888 5.33948 31.0795 12.1073 31.4579C13.9514 33.4085 17.2956 36.2689 20.2176 36.5625C19.1104 35.5737 17.2919 33.1988 17.7652 30.8041C22.65 29.3348 26.1144 25.6462 26.1144 21.3281C26.1144 15.719 20.2685 11.1719 13.0572 11.1719C5.8459 11.1719 0 15.719 0 21.3281ZM18.5329 22.1745C17.6024 22.1745 16.8481 21.4166 16.8481 20.4818C16.8481 19.5469 17.6024 18.7891 18.5329 18.7891C19.4634 18.7891 20.2177 19.5469 20.2177 20.4818C20.2177 21.4166 19.4634 22.1745 18.5329 22.1745ZM11.7937 20.4818C11.7937 21.4166 12.548 22.1745 13.4785 22.1745C14.409 22.1745 15.1633 21.4166 15.1633 20.4818C15.1633 19.5469 14.409 18.7891 13.4785 18.7891C12.548 18.7891 11.7937 19.5469 11.7937 20.4818ZM8.42407 22.1745C7.49359 22.1745 6.73927 21.4166 6.73927 20.4818C6.73927 19.5469 7.49359 18.7891 8.42407 18.7891C9.35456 18.7891 10.1089 19.5469 10.1089 20.4818C10.1089 21.4166 9.35456 22.1745 8.42407 22.1745Z" fill="#3B5998"/>
</svg>
