<svg width="807" height="371" viewBox="0 0 807 371" fill="none" xmlns="http://www.w3.org/2000/svg">
<rect x="155.5" y="339.5" width="31" height="31" fill="#D9D9D9" stroke="#999999"/>
<path d="M171.789 348.57H156V363.57H171.789L183.895 369.999H186V355.535L171.789 348.57Z" fill="#010684"/>
<rect x="-0.5" y="0.5" width="31" height="31" transform="matrix(1 0 0 -1 559 278)" fill="#D9D9D9" stroke="#999999"/>
<path d="M574.789 268.43H559V253.43H574.789L586.895 247.001H589V261.465L574.789 268.43Z" fill="#010684"/>
<rect x="0.5" y="-0.5" width="31" height="31" transform="matrix(-1 0 0 1 249 278)" fill="#D9D9D9" stroke="#999999"/>
<path d="M232.211 286.57H248V301.57H232.211L220.105 307.999H218V293.535L232.211 286.57Z" fill="#010684"/>
<rect x="651.5" y="339.5" width="31" height="31" transform="rotate(180 651.5 339.5)" fill="#D9D9D9" stroke="#999999"/>
<path d="M635.211 330.43H651V315.43H635.211L623.105 309.001H621V323.465L635.211 330.43Z" fill="#010684"/>
<rect x="0.5" y="-0.5" width="31" height="31" transform="matrix(-1 0 0 1 342 309)" fill="#D9D9D9" stroke="#999999"/>
<path d="M325.211 317.57H341V332.57H325.211L313.105 338.999H311V324.535L325.211 317.57Z" fill="#010684"/>
<rect x="744.5" y="308.5" width="31" height="31" transform="rotate(180 744.5 308.5)" fill="#D9D9D9" stroke="#999999"/>
<path d="M728.211 299.43H744V284.43H728.211L716.105 278.001H714V292.465L728.211 299.43Z" fill="#010684"/>
<rect x="62.5" y="246.5" width="31" height="31" fill="#D9D9D9" stroke="#999999"/>
<path d="M78.7895 255.57H63V270.57H78.7895L90.8947 276.999H93V262.535L78.7895 255.57Z" fill="#010684"/>
<rect x="-0.5" y="0.5" width="31" height="31" transform="matrix(1 0 0 -1 466 371)" fill="#D9D9D9" stroke="#999999"/>
<path d="M481.789 361.43H466V346.43H481.789L493.895 340.001H496V354.465L481.789 361.43Z" fill="#010684"/>
<rect x="31.5" y="339.5" width="31" height="31" fill="#D9D9D9" stroke="#999999"/>
<path d="M41.3105 354.211L41.3105 370L55.7933 370L55.7933 354.211L62.0002 342.105L62.0002 340L48.0347 340L41.3105 354.211Z" fill="#010684"/>
<rect x="-0.5" y="0.5" width="31" height="31" transform="matrix(1 0 0 -1 435 278)" fill="#D9D9D9" stroke="#999999"/>
<path d="M444.311 262.789L444.311 247L458.793 247L458.793 262.789L465 274.895L465 277L451.035 277L444.311 262.789Z" fill="#010684"/>
<rect x="0.5" y="-0.5" width="31" height="31" transform="matrix(-1 0 0 1 373 278)" fill="#D9D9D9" stroke="#999999"/>
<path d="M362.689 292.211L362.689 308L348.207 308L348.207 292.211L342 280.105L342 278L355.965 278L362.689 292.211Z" fill="#010684"/>
<rect x="775.5" y="339.5" width="31" height="31" transform="rotate(180 775.5 339.5)" fill="#D9D9D9" stroke="#999999"/>
<path d="M765.689 324.789L765.689 309L751.207 309L751.207 324.789L745 336.895L745 339L758.965 339L765.689 324.789Z" fill="#010684"/>
<rect x="0.5" y="-0.5" width="31" height="31" transform="matrix(-1 0 0 1 404 309)" fill="#D9D9D9" stroke="#999999"/>
<path d="M393.689 323.211L393.689 339L379.207 339L379.207 323.211L373 311.105L373 309L386.965 309L393.689 323.211Z" fill="#010684"/>
<rect x="806.5" y="308.5" width="31" height="31" transform="rotate(180 806.5 308.5)" fill="#D9D9D9" stroke="#999999"/>
<path d="M796.689 293.789L796.689 278L782.207 278L782.207 293.789L776 305.895L776 308L789.965 308L796.689 293.789Z" fill="#010684"/>
<rect x="0.5" y="246.5" width="31" height="31" fill="#D9D9D9" stroke="#999999"/>
<path d="M10.3105 261.211L10.3105 277L24.7933 277L24.7933 261.211L31.0002 249.105L31.0002 247L17.0347 247L10.3105 261.211Z" fill="#010684"/>
<rect x="-0.5" y="0.5" width="31" height="31" transform="matrix(1 0 0 -1 404 371)" fill="#D9D9D9" stroke="#999999"/>
<path d="M413.311 355.789L413.311 340L427.793 340L427.793 355.789L434 367.895L434 370L420.035 370L413.311 355.789Z" fill="#010684"/>
<rect x="341.5" y="339.5" width="31" height="31" fill="#D9D9D9" stroke="#999999"/>
<path d="M351.311 354.211L351.311 370L365.793 370L365.793 354.211L372 342.105L372 340L358.035 340L351.311 354.211Z" fill="#010684"/>
<rect x="-0.5" y="0.5" width="31" height="31" transform="matrix(1 0 0 -1 745 278)" fill="#D9D9D9" stroke="#999999"/>
<path d="M754.311 262.789L754.311 247L768.793 247L768.793 262.789L775 274.895L775 277L761.035 277L754.311 262.789Z" fill="#010684"/>
<rect x="0.5" y="-0.5" width="31" height="31" transform="matrix(-1 0 0 1 63 278)" fill="#D9D9D9" stroke="#999999"/>
<path d="M52.6895 292.211L52.6895 308L38.2067 308L38.2067 292.211L31.9998 280.105L31.9998 278L45.9653 278L52.6895 292.211Z" fill="#010684"/>
<rect x="465.5" y="339.5" width="31" height="31" transform="rotate(180 465.5 339.5)" fill="#D9D9D9" stroke="#999999"/>
<path d="M455.689 324.789L455.689 309L441.207 309L441.207 324.789L435 336.895L435 339L448.965 339L455.689 324.789Z" fill="#010684"/>
<rect x="0.5" y="-0.5" width="31" height="31" transform="matrix(-1 0 0 1 32 309)" fill="#D9D9D9" stroke="#999999"/>
<path d="M21.6895 323.211L21.6895 339L7.2067 339L7.2067 323.211L0.999799 311.105L0.999799 309L14.9653 309L21.6895 323.211Z" fill="#010684"/>
<rect x="434.5" y="308.5" width="31" height="31" transform="rotate(180 434.5 308.5)" fill="#D9D9D9" stroke="#999999"/>
<path d="M424.689 293.789L424.689 278L410.207 278L410.207 293.789L404 305.895L404 308L417.965 308L424.689 293.789Z" fill="#010684"/>
<rect x="372.5" y="246.5" width="31" height="31" fill="#D9D9D9" stroke="#999999"/>
<path d="M382.311 261.211L382.311 277L396.793 277L396.793 261.211L403 249.105L403 247L389.035 247L382.311 261.211Z" fill="#010684"/>
<rect x="-0.5" y="0.5" width="31" height="31" transform="matrix(1 0 0 -1 776 371)" fill="#D9D9D9" stroke="#999999"/>
<path d="M785.311 355.789L785.311 340L799.793 340L799.793 355.789L806 367.895L806 370L792.035 370L785.311 355.789Z" fill="#010684"/>
<rect x="186.5" y="339.5" width="31" height="31" fill="#D9D9D9" stroke="#999999"/>
<rect x="-0.5" y="0.5" width="31" height="31" transform="matrix(1 0 0 -1 590 278)" fill="#D9D9D9" stroke="#999999"/>
<rect x="0.5" y="-0.5" width="31" height="31" transform="matrix(-1 0 0 1 218 278)" fill="#D9D9D9" stroke="#999999"/>
<rect x="620.5" y="339.5" width="31" height="31" transform="rotate(180 620.5 339.5)" fill="#D9D9D9" stroke="#999999"/>
<rect x="0.5" y="-0.5" width="31" height="31" transform="matrix(-1 0 0 1 249 309)" fill="#D9D9D9" stroke="#999999"/>
<rect x="651.5" y="308.5" width="31" height="31" transform="rotate(180 651.5 308.5)" fill="#D9D9D9" stroke="#999999"/>
<rect x="155.5" y="246.5" width="31" height="31" fill="#D9D9D9" stroke="#999999"/>
<rect x="-0.5" y="0.5" width="31" height="31" transform="matrix(1 0 0 -1 559 371)" fill="#D9D9D9" stroke="#999999"/>
<rect x="341.5" y="308.5" width="31" height="31" fill="#D9D9D9" stroke="#999999"/>
<rect x="-0.5" y="0.5" width="31" height="31" transform="matrix(1 0 0 -1 745 309)" fill="#D9D9D9" stroke="#999999"/>
<rect x="0.5" y="-0.5" width="31" height="31" transform="matrix(-1 0 0 1 63 247)" fill="#D9D9D9" stroke="#999999"/>
<rect x="465.5" y="370.5" width="31" height="31" transform="rotate(180 465.5 370.5)" fill="#D9D9D9" stroke="#999999"/>
<rect x="0.5" y="-0.5" width="31" height="31" transform="matrix(-1 0 0 1 63 309)" fill="#D9D9D9" stroke="#999999"/>
<rect x="465.5" y="308.5" width="31" height="31" transform="rotate(180 465.5 308.5)" fill="#D9D9D9" stroke="#999999"/>
<rect x="341.5" y="246.5" width="31" height="31" fill="#D9D9D9" stroke="#999999"/>
<rect x="-0.5" y="0.5" width="31" height="31" transform="matrix(1 0 0 -1 745 371)" fill="#D9D9D9" stroke="#999999"/>
<rect x="279.5" y="339.5" width="31" height="31" fill="#D9D9D9" stroke="#999999"/>
<rect x="-0.5" y="0.5" width="31" height="31" transform="matrix(1 0 0 -1 683 278)" fill="#D9D9D9" stroke="#999999"/>
<rect x="0.5" y="-0.5" width="31" height="31" transform="matrix(-1 0 0 1 125 278)" fill="#D9D9D9" stroke="#999999"/>
<rect x="527.5" y="339.5" width="31" height="31" transform="rotate(180 527.5 339.5)" fill="#D9D9D9" stroke="#999999"/>
<rect x="0.5" y="-0.5" width="31" height="31" transform="matrix(-1 0 0 1 156 309)" fill="#D9D9D9" stroke="#999999"/>
<rect x="558.5" y="308.5" width="31" height="31" transform="rotate(180 558.5 308.5)" fill="#D9D9D9" stroke="#999999"/>
<rect x="248.5" y="246.5" width="31" height="31" fill="#D9D9D9" stroke="#999999"/>
<rect x="-0.5" y="0.5" width="31" height="31" transform="matrix(1 0 0 -1 652 371)" fill="#D9D9D9" stroke="#999999"/>
<rect x="62.5" y="339.5" width="31" height="31" fill="#D9D9D9" stroke="#999999"/>
<path d="M71.4211 354.727L63 340H84.5789L93 354.727H83V370H68.2632V354.727H71.4211Z" fill="#010684"/>
<rect x="-0.5" y="0.5" width="31" height="31" transform="matrix(1 0 0 -1 466 278)" fill="#D9D9D9" stroke="#999999"/>
<path d="M474.421 262.273L466 277H487.579L496 262.273H486V247H471.263V262.273H474.421Z" fill="#010684"/>
<rect x="0.5" y="-0.5" width="31" height="31" transform="matrix(-1 0 0 1 342 278)" fill="#D9D9D9" stroke="#999999"/>
<path d="M332.579 292.727L341 278H319.421L311 292.727H321V308H335.737V292.727H332.579Z" fill="#010684"/>
<rect x="744.5" y="339.5" width="31" height="31" transform="rotate(180 744.5 339.5)" fill="#D9D9D9" stroke="#999999"/>
<path d="M735.579 324.273L744 339H722.421L714 324.273H724V309H738.737V324.273H735.579Z" fill="#010684"/>
<rect x="0.5" y="-0.5" width="31" height="31" transform="matrix(-1 0 0 1 342 340)" fill="#D9D9D9" stroke="#999999"/>
<path d="M332.579 354.727L341 340H319.421L311 354.727H321V370H335.737V354.727H332.579Z" fill="#010684"/>
<rect x="744.5" y="277.5" width="31" height="31" transform="rotate(180 744.5 277.5)" fill="#D9D9D9" stroke="#999999"/>
<path d="M735.579 262.273L744 277H722.421L714 262.273H724V247H738.737V262.273H735.579Z" fill="#010684"/>
<rect x="62.5" y="277.5" width="31" height="31" fill="#D9D9D9" stroke="#999999"/>
<path d="M71.4211 292.727L63 278H84.5789L93 292.727H83V308H68.2632V292.727H71.4211Z" fill="#010684"/>
<rect x="-0.5" y="0.5" width="31" height="31" transform="matrix(1 0 0 -1 466 340)" fill="#D9D9D9" stroke="#999999"/>
<path d="M474.421 324.273L466 339H487.579L496 324.273H486V309H471.263V324.273H474.421Z" fill="#010684"/>
<rect x="279.5" y="339.5" width="31" height="31" transform="rotate(-180 279.5 339.5)" fill="#D9D9D9" stroke="#999999"/>
<path d="M270.579 324.273L279 339L257.421 339L249 324.273L259 324.273L259 309L273.737 309L273.737 324.273L270.579 324.273Z" fill="#010684"/>
<rect x="0.5" y="-0.5" width="31" height="31" transform="matrix(-1 8.74228e-08 8.74228e-08 1 683 278)" fill="#D9D9D9" stroke="#999999"/>
<path d="M673.579 292.727L682 278L660.421 278L652 292.727L662 292.727L662 308L676.737 308L676.737 292.727L673.579 292.727Z" fill="#010684"/>
<rect x="-0.5" y="0.5" width="31" height="31" transform="matrix(1 -8.74228e-08 -8.74228e-08 -1 125 278)" fill="#D9D9D9" stroke="#999999"/>
<path d="M133.421 262.273L125 277L146.579 277L155 262.273L145 262.273L145 247L130.263 247L130.263 262.273L133.421 262.273Z" fill="#010684"/>
<rect x="527.5" y="339.5" width="31" height="31" fill="#D9D9D9" stroke="#999999"/>
<path d="M536.421 354.727L528 340L549.579 340L558 354.727L548 354.727L548 370L533.263 370L533.263 354.727L536.421 354.727Z" fill="#010684"/>
<rect x="-0.5" y="0.5" width="31" height="31" transform="matrix(1 -8.74228e-08 -8.74228e-08 -1 125 371)" fill="#D9D9D9" stroke="#999999"/>
<path d="M133.421 355.273L125 370L146.579 370L155 355.273L145 355.273L145 340L130.263 340L130.263 355.273L133.421 355.273Z" fill="#010684"/>
<rect x="527.5" y="246.5" width="31" height="31" fill="#D9D9D9" stroke="#999999"/>
<path d="M536.421 261.727L528 247L549.579 247L558 261.727L548 261.727L548 277L533.263 277L533.263 261.727L536.421 261.727Z" fill="#010684"/>
<rect x="279.5" y="308.5" width="31" height="31" transform="rotate(-180 279.5 308.5)" fill="#D9D9D9" stroke="#999999"/>
<path d="M270.579 293.273L279 308L257.421 308L249 293.273L259 293.273L259 278L273.737 278L273.737 293.273L270.579 293.273Z" fill="#010684"/>
<rect x="0.5" y="-0.5" width="31" height="31" transform="matrix(-1 8.74228e-08 8.74228e-08 1 683 309)" fill="#D9D9D9" stroke="#999999"/>
<path d="M673.579 323.727L682 309L660.421 309L652 323.727L662 323.727L662 339L676.737 339L676.737 323.727L673.579 323.727Z" fill="#010684"/>
<rect x="372.5" y="339.5" width="31" height="31" fill="#D9D9D9" stroke="#999999"/>
<path d="M381.421 354.727L373 340H394.579L403 354.727H393V370H378.263V354.727H381.421Z" fill="#010684"/>
<rect x="-0.5" y="0.5" width="31" height="31" transform="matrix(1 0 0 -1 776 278)" fill="#D9D9D9" stroke="#999999"/>
<path d="M784.421 262.273L776 277H797.579L806 262.273H796V247H781.263V262.273H784.421Z" fill="#010684"/>
<rect x="0.5" y="-0.5" width="31" height="31" transform="matrix(-1 0 0 1 32 278)" fill="#D9D9D9" stroke="#999999"/>
<path d="M22.5789 292.727L31 278H9.42105L0.999998 292.727H11V308H25.7368V292.727H22.5789Z" fill="#010684"/>
<rect x="434.5" y="339.5" width="31" height="31" transform="rotate(180 434.5 339.5)" fill="#D9D9D9" stroke="#999999"/>
<path d="M425.579 324.273L434 339H412.421L404 324.273H414V309H428.737V324.273H425.579Z" fill="#010684"/>
<rect x="0.5" y="-0.5" width="31" height="31" transform="matrix(-1 0 0 1 32 340)" fill="#D9D9D9" stroke="#999999"/>
<path d="M22.5789 354.727L31 340H9.42105L0.999998 354.727H11V370H25.7368V354.727H22.5789Z" fill="#010684"/>
<rect x="434.5" y="277.5" width="31" height="31" transform="rotate(180 434.5 277.5)" fill="#D9D9D9" stroke="#999999"/>
<path d="M425.579 262.273L434 277H412.421L404 262.273H414V247H428.737V262.273H425.579Z" fill="#010684"/>
<rect x="372.5" y="277.5" width="31" height="31" fill="#D9D9D9" stroke="#999999"/>
<path d="M381.421 292.727L373 278H394.579L403 292.727H393V308H378.263V292.727H381.421Z" fill="#010684"/>
<rect x="-0.5" y="0.5" width="31" height="31" transform="matrix(1 0 0 -1 776 340)" fill="#D9D9D9" stroke="#999999"/>
<path d="M784.421 324.273L776 339H797.579L806 324.273H796V309H781.263V324.273H784.421Z" fill="#010684"/>
<rect x="279.5" y="308.5" width="31" height="31" fill="#D9D9D9" stroke="#999999"/>
<path d="M301.579 324.273L310 339L288.421 339L280 324.273L290 324.273L290 309L304.737 309L304.737 324.273L301.579 324.273Z" fill="#010684"/>
<rect x="-0.5" y="0.5" width="31" height="31" transform="matrix(1 0 0 -1 683 309)" fill="#D9D9D9" stroke="#999999"/>
<path d="M704.579 292.727L713 278L691.421 278L683 292.727L693 292.727L693 308L707.737 308L707.737 292.727L704.579 292.727Z" fill="#010684"/>
<rect x="0.5" y="-0.5" width="31" height="31" transform="matrix(-1 0 0 1 125 247)" fill="#D9D9D9" stroke="#999999"/>
<path d="M102.421 262.273L94 277L115.579 277L124 262.273L114 262.273L114 247L99.2632 247L99.2632 262.273L102.421 262.273Z" fill="#010684"/>
<rect x="527.5" y="370.5" width="31" height="31" transform="rotate(180 527.5 370.5)" fill="#D9D9D9" stroke="#999999"/>
<path d="M505.421 354.727L497 340L518.579 340L527 354.727L517 354.727L517 370L502.263 370L502.263 354.727L505.421 354.727Z" fill="#010684"/>
<rect x="0.5" y="-0.5" width="31" height="31" transform="matrix(-1 0 0 1 94 309)" fill="#D9D9D9" stroke="#999999"/>
<path d="M71.4211 324.273L63 339L84.5789 339L93 324.273L83 324.273L83 309L68.2632 309L68.2632 324.273L71.4211 324.273Z" fill="#010684"/>
<rect x="496.5" y="308.5" width="31" height="31" transform="rotate(180 496.5 308.5)" fill="#D9D9D9" stroke="#999999"/>
<path d="M474.421 292.727L466 278L487.579 278L496 292.727L486 292.727L486 308L471.263 308L471.263 292.727L474.421 292.727Z" fill="#010684"/>
<rect x="310.5" y="246.5" width="31" height="31" fill="#D9D9D9" stroke="#999999"/>
<path d="M332.579 262.273L341 277L319.421 277L311 262.273L321 262.273L321 247L335.737 247L335.737 262.273L332.579 262.273Z" fill="#010684"/>
<rect x="-0.5" y="0.5" width="31" height="31" transform="matrix(1 0 0 -1 714 371)" fill="#D9D9D9" stroke="#999999"/>
<path d="M735.579 354.727L744 340L722.421 340L714 354.727L724 354.727L724 370L738.737 370L738.737 354.727L735.579 354.727Z" fill="#010684"/>
<rect x="155.5" y="308.5" width="31" height="31" fill="#D9D9D9" stroke="#999999"/>
<path d="M156 329.455V309C158.857 312.636 165.964 319.909 171.536 319.909C177.107 319.909 183.5 312.636 186 309V330.818C184.393 333.545 179.25 339 171.536 339C163.821 339 157.964 332.636 156 329.455Z" fill="#010684"/>
<rect x="-0.5" y="0.5" width="31" height="31" transform="matrix(1 0 0 -1 559 309)" fill="#D9D9D9" stroke="#999999"/>
<path d="M559 287.545V308C561.857 304.364 568.964 297.091 574.536 297.091C580.107 297.091 586.5 304.364 589 308V286.182C587.393 283.455 582.25 278 574.536 278C566.821 278 560.964 284.364 559 287.545Z" fill="#010684"/>
<rect x="0.5" y="-0.5" width="31" height="31" transform="matrix(-1 0 0 1 249 247)" fill="#D9D9D9" stroke="#999999"/>
<path d="M248 267.455V247C245.143 250.636 238.036 257.909 232.464 257.909C226.893 257.909 220.5 250.636 218 247V268.818C219.607 271.545 224.75 277 232.464 277C240.179 277 246.036 270.636 248 267.455Z" fill="#010684"/>
<rect x="651.5" y="370.5" width="31" height="31" transform="rotate(180 651.5 370.5)" fill="#D9D9D9" stroke="#999999"/>
<path d="M651 349.545V370C648.143 366.364 641.036 359.091 635.464 359.091C629.893 359.091 623.5 366.364 621 370V348.182C622.607 345.455 627.75 340 635.464 340C643.179 340 649.036 346.364 651 349.545Z" fill="#010684"/>
<rect x="0.5" y="-0.5" width="31" height="31" transform="matrix(-1 0 0 1 249 340)" fill="#D9D9D9" stroke="#999999"/>
<path d="M248 360.455V340C245.143 343.636 238.036 350.909 232.464 350.909C226.893 350.909 220.5 343.636 218 340V361.818C219.607 364.545 224.75 370 232.464 370C240.179 370 246.036 363.636 248 360.455Z" fill="#010684"/>
<rect x="651.5" y="277.5" width="31" height="31" transform="rotate(180 651.5 277.5)" fill="#D9D9D9" stroke="#999999"/>
<path d="M651 256.545V277C648.143 273.364 641.036 266.091 635.464 266.091C629.893 266.091 623.5 273.364 621 277V255.182C622.607 252.455 627.75 247 635.464 247C643.179 247 649.036 253.364 651 256.545Z" fill="#010684"/>
<rect x="155.5" y="277.5" width="31" height="31" fill="#D9D9D9" stroke="#999999"/>
<path d="M156 298.455V278C158.857 281.636 165.964 288.909 171.536 288.909C177.107 288.909 183.5 281.636 186 278V299.818C184.393 302.545 179.25 308 171.536 308C163.821 308 157.964 301.636 156 298.455Z" fill="#010684"/>
<rect x="-0.5" y="0.5" width="31" height="31" transform="matrix(1 0 0 -1 559 340)" fill="#D9D9D9" stroke="#999999"/>
<path d="M559 318.545V339C561.857 335.364 568.964 328.091 574.536 328.091C580.107 328.091 586.5 335.364 589 339V317.182C587.393 314.455 582.25 309 574.536 309C566.821 309 560.964 315.364 559 318.545Z" fill="#010684"/>
<rect x="248.5" y="339.5" width="31" height="31" fill="#D9D9D9" stroke="#999999"/>
<path d="M249 349.545V370C251.857 366.364 258.964 359.091 264.536 359.091C270.107 359.091 276.5 366.364 279 370V348.182C277.393 345.455 272.25 340 264.536 340C256.821 340 250.964 346.364 249 349.545Z" fill="#010684"/>
<rect x="-0.5" y="0.5" width="31" height="31" transform="matrix(1 0 0 -1 652 278)" fill="#D9D9D9" stroke="#999999"/>
<path d="M652 267.455V247C654.857 250.636 661.964 257.909 667.536 257.909C673.107 257.909 679.5 250.636 682 247V268.818C680.393 271.545 675.25 277 667.536 277C659.821 277 653.964 270.636 652 267.455Z" fill="#010684"/>
<rect x="0.5" y="-0.5" width="31" height="31" transform="matrix(-1 0 0 1 156 278)" fill="#D9D9D9" stroke="#999999"/>
<path d="M155 287.545V308C152.143 304.364 145.036 297.091 139.464 297.091C133.893 297.091 127.5 304.364 125 308V286.182C126.607 283.455 131.75 278 139.464 278C147.179 278 153.036 284.364 155 287.545Z" fill="#010684"/>
<rect x="558.5" y="339.5" width="31" height="31" transform="rotate(180 558.5 339.5)" fill="#D9D9D9" stroke="#999999"/>
<path d="M558 329.455V309C555.143 312.636 548.036 319.909 542.464 319.909C536.893 319.909 530.5 312.636 528 309V330.818C529.607 333.545 534.75 339 542.464 339C550.179 339 556.036 332.636 558 329.455Z" fill="#010684"/>
<rect x="0.5" y="-0.5" width="31" height="31" transform="matrix(-1 0 0 1 125 340)" fill="#D9D9D9" stroke="#999999"/>
<path d="M124 349.545V370C121.143 366.364 114.036 359.091 108.464 359.091C102.893 359.091 96.5 366.364 94 370V348.182C95.6071 345.455 100.75 340 108.464 340C116.179 340 122.036 346.364 124 349.545Z" fill="#010684"/>
<rect x="527.5" y="277.5" width="31" height="31" transform="rotate(180 527.5 277.5)" fill="#D9D9D9" stroke="#999999"/>
<path d="M527 267.455V247C524.143 250.636 517.036 257.909 511.464 257.909C505.893 257.909 499.5 250.636 497 247V268.818C498.607 271.545 503.75 277 511.464 277C519.179 277 525.036 270.636 527 267.455Z" fill="#010684"/>
<rect x="279.5" y="277.5" width="31" height="31" fill="#D9D9D9" stroke="#999999"/>
<path d="M280 287.545V308C282.857 304.364 289.964 297.091 295.536 297.091C301.107 297.091 307.5 304.364 310 308V286.182C308.393 283.455 303.25 278 295.536 278C287.821 278 281.964 284.364 280 287.545Z" fill="#010684"/>
<rect x="-0.5" y="0.5" width="31" height="31" transform="matrix(1 0 0 -1 683 340)" fill="#D9D9D9" stroke="#999999"/>
<path d="M683 329.455V309C685.857 312.636 692.964 319.909 698.536 319.909C704.107 319.909 710.5 312.636 713 309V330.818C711.393 333.545 706.25 339 698.536 339C690.821 339 684.964 332.636 683 329.455Z" fill="#010684"/>
<rect x="186.5" y="308.5" width="31" height="31" fill="#D9D9D9" stroke="#999999"/>
<path d="M196.217 309L215.966 309C212.455 311.857 205.433 318.964 205.433 324.536C205.433 330.107 212.455 336.5 215.966 339L194.9 339C192.267 337.393 187 332.25 187 324.536C187 316.821 193.145 310.964 196.217 309Z" fill="#010684"/>
<rect x="-0.5" y="0.5" width="31" height="31" transform="matrix(1 0 0 -1 590 309)" fill="#D9D9D9" stroke="#999999"/>
<path d="M599.217 308L618.966 308C615.455 305.143 608.433 298.036 608.433 292.464C608.433 286.893 615.455 280.5 618.966 278L597.9 278C595.267 279.607 590 284.75 590 292.464C590 300.179 596.145 306.036 599.217 308Z" fill="#010684"/>
<rect x="0.5" y="-0.5" width="31" height="31" transform="matrix(-1 0 0 1 218 247)" fill="#D9D9D9" stroke="#999999"/>
<path d="M207.783 247L188.034 247C191.545 249.857 198.567 256.964 198.567 262.536C198.567 268.107 191.545 274.5 188.034 277L209.1 277C211.733 275.393 217 270.25 217 262.536C217 254.821 210.855 248.964 207.783 247Z" fill="#010684"/>
<rect x="620.5" y="370.5" width="31" height="31" transform="rotate(180 620.5 370.5)" fill="#D9D9D9" stroke="#999999"/>
<path d="M610.783 370L591.034 370C594.545 367.143 601.567 360.036 601.567 354.464C601.567 348.893 594.545 342.5 591.034 340L612.1 340C614.733 341.607 620 346.75 620 354.464C620 362.179 613.855 368.036 610.783 370Z" fill="#010684"/>
<rect x="0.5" y="-0.5" width="31" height="31" transform="matrix(-1 0 0 1 125 309)" fill="#D9D9D9" stroke="#999999"/>
<path d="M114.783 309L95.0342 309C98.5452 311.857 105.567 318.964 105.567 324.536C105.567 330.107 98.5452 336.5 95.0342 339L116.1 339C118.733 337.393 124 332.25 124 324.536C124 316.821 117.855 310.964 114.783 309Z" fill="#010684"/>
<rect x="527.5" y="308.5" width="31" height="31" transform="rotate(180 527.5 308.5)" fill="#D9D9D9" stroke="#999999"/>
<path d="M517.783 308L498.034 308C501.545 305.143 508.567 298.036 508.567 292.464C508.567 286.893 501.545 280.5 498.034 278L519.1 278C521.733 279.607 527 284.75 527 292.464C527 300.179 520.855 306.036 517.783 308Z" fill="#010684"/>
<rect x="279.5" y="246.5" width="31" height="31" fill="#D9D9D9" stroke="#999999"/>
<path d="M289.217 247L308.966 247C305.455 249.857 298.433 256.964 298.433 262.536C298.433 268.107 305.455 274.5 308.966 277L287.9 277C285.267 275.393 280 270.25 280 262.536C280 254.821 286.145 248.964 289.217 247Z" fill="#010684"/>
<rect x="-0.5" y="0.5" width="31" height="31" transform="matrix(1 0 0 -1 683 371)" fill="#D9D9D9" stroke="#999999"/>
<path d="M692.217 370L711.966 370C708.455 367.143 701.433 360.036 701.433 354.464C701.433 348.893 708.455 342.5 711.966 340L690.9 340C688.267 341.607 683 346.75 683 354.464C683 362.179 689.145 368.036 692.217 370Z" fill="#010684"/>
<rect x="155.5" y="93.5" width="31" height="31" fill="#D9D9D9" stroke="#999999"/>
<path d="M171.789 102.57H156V117.57H171.789L183.895 123.999H186V109.535L171.789 102.57Z" fill="#010684"/>
<rect x="-0.5" y="0.5" width="31" height="31" transform="matrix(1 0 0 -1 559 32)" fill="#D9D9D9" stroke="#999999"/>
<path d="M574.789 22.4297H559V7.42969H574.789L586.895 1.00112H589V15.4654L574.789 22.4297Z" fill="#010684"/>
<rect x="0.5" y="-0.5" width="31" height="31" transform="matrix(-1 0 0 1 249 32)" fill="#D9D9D9" stroke="#999999"/>
<path d="M232.211 40.5703H248V55.5703H232.211L220.105 61.9989H218V47.5346L232.211 40.5703Z" fill="#010684"/>
<rect x="651.5" y="93.5" width="31" height="31" transform="rotate(180 651.5 93.5)" fill="#D9D9D9" stroke="#999999"/>
<path d="M635.211 84.4297H651V69.4297H635.211L623.105 63.0011H621V77.4654L635.211 84.4297Z" fill="#010684"/>
<rect x="0.5" y="-0.5" width="31" height="31" transform="matrix(-1 0 0 1 342 63)" fill="#D9D9D9" stroke="#999999"/>
<path d="M325.211 71.5703H341V86.5703H325.211L313.105 92.9989H311V78.5346L325.211 71.5703Z" fill="#010684"/>
<rect x="744.5" y="62.5" width="31" height="31" transform="rotate(180 744.5 62.5)" fill="#D9D9D9" stroke="#999999"/>
<path d="M728.211 53.4297H744V38.4297H728.211L716.105 32.0011H714V46.4654L728.211 53.4297Z" fill="#010684"/>
<rect x="62.5" y="0.5" width="31" height="31" fill="#D9D9D9" stroke="#999999"/>
<path d="M78.7895 9.57031H63V24.5703H78.7895L90.8947 30.9989H93V16.5346L78.7895 9.57031Z" fill="#010684"/>
<rect x="-0.5" y="0.5" width="31" height="31" transform="matrix(1 0 0 -1 466 125)" fill="#D9D9D9" stroke="#999999"/>
<path d="M481.789 115.43H466V100.43H481.789L493.895 94.0011H496V108.465L481.789 115.43Z" fill="#010684"/>
<rect x="31.5" y="93.5" width="31" height="31" fill="#D9D9D9" stroke="#999999"/>
<path d="M41.3105 108.211L41.3105 124L55.7933 124L55.7933 108.211L62.0002 96.1053L62.0002 94L48.0347 94L41.3105 108.211Z" fill="#010684"/>
<rect x="-0.5" y="0.5" width="31" height="31" transform="matrix(1 0 0 -1 435 32)" fill="#D9D9D9" stroke="#999999"/>
<path d="M444.311 16.7895L444.311 1L458.793 1L458.793 16.7895L465 28.8947L465 31L451.035 31L444.311 16.7895Z" fill="#010684"/>
<rect x="0.5" y="-0.5" width="31" height="31" transform="matrix(-1 0 0 1 373 32)" fill="#D9D9D9" stroke="#999999"/>
<path d="M362.689 46.2105L362.689 62L348.207 62L348.207 46.2105L342 34.1053L342 32L355.965 32L362.689 46.2105Z" fill="#010684"/>
<rect x="775.5" y="93.5" width="31" height="31" transform="rotate(180 775.5 93.5)" fill="#D9D9D9" stroke="#999999"/>
<path d="M765.689 78.7895L765.689 63L751.207 63L751.207 78.7895L745 90.8947L745 93L758.965 93L765.689 78.7895Z" fill="#010684"/>
<rect x="0.5" y="-0.5" width="31" height="31" transform="matrix(-1 0 0 1 404 63)" fill="#D9D9D9" stroke="#999999"/>
<path d="M393.689 77.2105L393.689 93L379.207 93L379.207 77.2105L373 65.1053L373 63L386.965 63L393.689 77.2105Z" fill="#010684"/>
<rect x="806.5" y="62.5" width="31" height="31" transform="rotate(180 806.5 62.5)" fill="#D9D9D9" stroke="#999999"/>
<path d="M796.689 47.7895L796.689 32L782.207 32L782.207 47.7895L776 59.8947L776 62L789.965 62L796.689 47.7895Z" fill="#010684"/>
<rect x="0.5" y="0.5" width="31" height="31" fill="#D9D9D9" stroke="#999999"/>
<path d="M10.3105 15.2105L10.3105 31L24.7933 31L24.7933 15.2105L31.0002 3.10526L31.0002 0.999997L17.0347 0.999998L10.3105 15.2105Z" fill="#010684"/>
<rect x="-0.5" y="0.5" width="31" height="31" transform="matrix(1 0 0 -1 404 125)" fill="#D9D9D9" stroke="#999999"/>
<path d="M413.311 109.789L413.311 94L427.793 94L427.793 109.789L434 121.895L434 124L420.035 124L413.311 109.789Z" fill="#010684"/>
<rect x="341.5" y="93.5" width="31" height="31" fill="#D9D9D9" stroke="#999999"/>
<path d="M351.311 108.211L351.311 124L365.793 124L365.793 108.211L372 96.1053L372 94L358.035 94L351.311 108.211Z" fill="#010684"/>
<rect x="-0.5" y="0.5" width="31" height="31" transform="matrix(1 0 0 -1 745 32)" fill="#D9D9D9" stroke="#999999"/>
<path d="M754.311 16.7895L754.311 1L768.793 1L768.793 16.7895L775 28.8947L775 31L761.035 31L754.311 16.7895Z" fill="#010684"/>
<rect x="0.5" y="-0.5" width="31" height="31" transform="matrix(-1 0 0 1 63 32)" fill="#D9D9D9" stroke="#999999"/>
<path d="M52.6895 46.2105L52.6895 62L38.2067 62L38.2067 46.2105L31.9998 34.1053L31.9998 32L45.9653 32L52.6895 46.2105Z" fill="#010684"/>
<rect x="465.5" y="93.5" width="31" height="31" transform="rotate(180 465.5 93.5)" fill="#D9D9D9" stroke="#999999"/>
<path d="M455.689 78.7895L455.689 63L441.207 63L441.207 78.7895L435 90.8947L435 93L448.965 93L455.689 78.7895Z" fill="#010684"/>
<rect x="0.5" y="-0.5" width="31" height="31" transform="matrix(-1 0 0 1 32 63)" fill="#D9D9D9" stroke="#999999"/>
<path d="M21.6895 77.2105L21.6895 93L7.2067 93L7.2067 77.2105L0.999799 65.1053L0.999799 63L14.9653 63L21.6895 77.2105Z" fill="#010684"/>
<rect x="434.5" y="62.5" width="31" height="31" transform="rotate(180 434.5 62.5)" fill="#D9D9D9" stroke="#999999"/>
<path d="M424.689 47.7895L424.689 32L410.207 32L410.207 47.7895L404 59.8947L404 62L417.965 62L424.689 47.7895Z" fill="#010684"/>
<rect x="372.5" y="0.5" width="31" height="31" fill="#D9D9D9" stroke="#999999"/>
<path d="M382.311 15.2105L382.311 31L396.793 31L396.793 15.2105L403 3.10526L403 0.999997L389.035 0.999998L382.311 15.2105Z" fill="#010684"/>
<rect x="-0.5" y="0.5" width="31" height="31" transform="matrix(1 0 0 -1 776 125)" fill="#D9D9D9" stroke="#999999"/>
<path d="M785.311 109.789L785.311 94L799.793 94L799.793 109.789L806 121.895L806 124L792.035 124L785.311 109.789Z" fill="#010684"/>
<rect x="186.5" y="93.5" width="31" height="31" fill="#D9D9D9" stroke="#999999"/>
<rect x="-0.5" y="0.5" width="31" height="31" transform="matrix(1 0 0 -1 590 32)" fill="#D9D9D9" stroke="#999999"/>
<rect x="0.5" y="-0.5" width="31" height="31" transform="matrix(-1 0 0 1 218 32)" fill="#D9D9D9" stroke="#999999"/>
<rect x="620.5" y="93.5" width="31" height="31" transform="rotate(180 620.5 93.5)" fill="#D9D9D9" stroke="#999999"/>
<rect x="0.5" y="-0.5" width="31" height="31" transform="matrix(-1 0 0 1 249 63)" fill="#D9D9D9" stroke="#999999"/>
<rect x="651.5" y="62.5" width="31" height="31" transform="rotate(180 651.5 62.5)" fill="#D9D9D9" stroke="#999999"/>
<rect x="155.5" y="0.5" width="31" height="31" fill="#D9D9D9" stroke="#999999"/>
<rect x="-0.5" y="0.5" width="31" height="31" transform="matrix(1 0 0 -1 559 125)" fill="#D9D9D9" stroke="#999999"/>
<rect x="341.5" y="62.5" width="31" height="31" fill="#D9D9D9" stroke="#999999"/>
<rect x="-0.5" y="0.5" width="31" height="31" transform="matrix(1 0 0 -1 745 63)" fill="#D9D9D9" stroke="#999999"/>
<rect x="0.5" y="-0.5" width="31" height="31" transform="matrix(-1 0 0 1 63 1)" fill="#D9D9D9" stroke="#999999"/>
<rect x="465.5" y="124.5" width="31" height="31" transform="rotate(180 465.5 124.5)" fill="#D9D9D9" stroke="#999999"/>
<rect x="0.5" y="-0.5" width="31" height="31" transform="matrix(-1 0 0 1 63 63)" fill="#D9D9D9" stroke="#999999"/>
<rect x="465.5" y="62.5" width="31" height="31" transform="rotate(180 465.5 62.5)" fill="#D9D9D9" stroke="#999999"/>
<rect x="341.5" y="0.5" width="31" height="31" fill="#D9D9D9" stroke="#999999"/>
<rect x="-0.5" y="0.5" width="31" height="31" transform="matrix(1 0 0 -1 745 125)" fill="#D9D9D9" stroke="#999999"/>
<rect x="279.5" y="93.5" width="31" height="31" fill="#D9D9D9" stroke="#999999"/>
<rect x="-0.5" y="0.5" width="31" height="31" transform="matrix(1 0 0 -1 683 32)" fill="#D9D9D9" stroke="#999999"/>
<rect x="0.5" y="-0.5" width="31" height="31" transform="matrix(-1 0 0 1 125 32)" fill="#D9D9D9" stroke="#999999"/>
<rect x="527.5" y="93.5" width="31" height="31" transform="rotate(180 527.5 93.5)" fill="#D9D9D9" stroke="#999999"/>
<rect x="0.5" y="-0.5" width="31" height="31" transform="matrix(-1 0 0 1 156 63)" fill="#D9D9D9" stroke="#999999"/>
<rect x="558.5" y="62.5" width="31" height="31" transform="rotate(180 558.5 62.5)" fill="#D9D9D9" stroke="#999999"/>
<rect x="248.5" y="0.5" width="31" height="31" fill="#D9D9D9" stroke="#999999"/>
<rect x="-0.5" y="0.5" width="31" height="31" transform="matrix(1 0 0 -1 652 125)" fill="#D9D9D9" stroke="#999999"/>
<rect x="62.5" y="93.5" width="31" height="31" fill="#D9D9D9" stroke="#999999"/>
<path d="M71.4211 108.727L63 94H84.5789L93 108.727H83V124H68.2632V108.727H71.4211Z" fill="#010684"/>
<rect x="-0.5" y="0.5" width="31" height="31" transform="matrix(1 0 0 -1 466 32)" fill="#D9D9D9" stroke="#999999"/>
<path d="M474.421 16.2727L466 31H487.579L496 16.2727H486V1H471.263V16.2727H474.421Z" fill="#010684"/>
<rect x="0.5" y="-0.5" width="31" height="31" transform="matrix(-1 0 0 1 342 32)" fill="#D9D9D9" stroke="#999999"/>
<path d="M332.579 46.7273L341 32H319.421L311 46.7273H321V62H335.737V46.7273H332.579Z" fill="#010684"/>
<rect x="744.5" y="93.5" width="31" height="31" transform="rotate(180 744.5 93.5)" fill="#D9D9D9" stroke="#999999"/>
<path d="M735.579 78.2727L744 93H722.421L714 78.2727H724V63H738.737V78.2727H735.579Z" fill="#010684"/>
<rect x="0.5" y="-0.5" width="31" height="31" transform="matrix(-1 0 0 1 342 94)" fill="#D9D9D9" stroke="#999999"/>
<path d="M332.579 108.727L341 94H319.421L311 108.727H321V124H335.737V108.727H332.579Z" fill="#010684"/>
<rect x="744.5" y="31.5" width="31" height="31" transform="rotate(180 744.5 31.5)" fill="#D9D9D9" stroke="#999999"/>
<path d="M735.579 16.2727L744 31H722.421L714 16.2727H724V1H738.737V16.2727H735.579Z" fill="#010684"/>
<rect x="62.5" y="31.5" width="31" height="31" fill="#D9D9D9" stroke="#999999"/>
<path d="M71.4211 46.7273L63 32H84.5789L93 46.7273H83V62H68.2632V46.7273H71.4211Z" fill="#010684"/>
<rect x="-0.5" y="0.5" width="31" height="31" transform="matrix(1 0 0 -1 466 94)" fill="#D9D9D9" stroke="#999999"/>
<path d="M474.421 78.2727L466 93H487.579L496 78.2727H486V63H471.263V78.2727H474.421Z" fill="#010684"/>
<rect x="279.5" y="93.5" width="31" height="31" transform="rotate(-180 279.5 93.5)" fill="#D9D9D9" stroke="#999999"/>
<path d="M270.579 78.2727L279 93L257.421 93L249 78.2727L259 78.2727L259 63L273.737 63L273.737 78.2727L270.579 78.2727Z" fill="#010684"/>
<rect x="0.5" y="-0.5" width="31" height="31" transform="matrix(-1 8.74228e-08 8.74228e-08 1 683 32)" fill="#D9D9D9" stroke="#999999"/>
<path d="M673.579 46.7273L682 32L660.421 32L652 46.7273L662 46.7273L662 62L676.737 62L676.737 46.7273L673.579 46.7273Z" fill="#010684"/>
<rect x="-0.5" y="0.5" width="31" height="31" transform="matrix(1 -8.74228e-08 -8.74228e-08 -1 125 32)" fill="#D9D9D9" stroke="#999999"/>
<path d="M133.421 16.2727L125 31L146.579 31L155 16.2727L145 16.2727L145 0.999998L130.263 1L130.263 16.2727L133.421 16.2727Z" fill="#010684"/>
<rect x="527.5" y="93.5" width="31" height="31" fill="#D9D9D9" stroke="#999999"/>
<path d="M536.421 108.727L528 94L549.579 94L558 108.727L548 108.727L548 124L533.263 124L533.263 108.727L536.421 108.727Z" fill="#010684"/>
<rect x="-0.5" y="0.5" width="31" height="31" transform="matrix(1 -8.74228e-08 -8.74228e-08 -1 125 125)" fill="#D9D9D9" stroke="#999999"/>
<path d="M133.421 109.273L125 124L146.579 124L155 109.273L145 109.273L145 94L130.263 94L130.263 109.273L133.421 109.273Z" fill="#010684"/>
<rect x="527.5" y="0.5" width="31" height="31" fill="#D9D9D9" stroke="#999999"/>
<path d="M536.421 15.7273L528 1L549.579 1L558 15.7273L548 15.7273L548 31L533.263 31L533.263 15.7273L536.421 15.7273Z" fill="#010684"/>
<rect x="279.5" y="62.5" width="31" height="31" transform="rotate(-180 279.5 62.5)" fill="#D9D9D9" stroke="#999999"/>
<path d="M270.579 47.2727L279 62L257.421 62L249 47.2727L259 47.2727L259 32L273.737 32L273.737 47.2727L270.579 47.2727Z" fill="#010684"/>
<rect x="0.5" y="-0.5" width="31" height="31" transform="matrix(-1 8.74228e-08 8.74228e-08 1 683 63)" fill="#D9D9D9" stroke="#999999"/>
<path d="M673.579 77.7273L682 63L660.421 63L652 77.7273L662 77.7273L662 93L676.737 93L676.737 77.7273L673.579 77.7273Z" fill="#010684"/>
<rect x="372.5" y="93.5" width="31" height="31" fill="#D9D9D9" stroke="#999999"/>
<path d="M381.421 108.727L373 94H394.579L403 108.727H393V124H378.263V108.727H381.421Z" fill="#010684"/>
<rect x="-0.5" y="0.5" width="31" height="31" transform="matrix(1 0 0 -1 776 32)" fill="#D9D9D9" stroke="#999999"/>
<path d="M784.421 16.2727L776 31H797.579L806 16.2727H796V1H781.263V16.2727H784.421Z" fill="#010684"/>
<rect x="0.5" y="-0.5" width="31" height="31" transform="matrix(-1 0 0 1 32 32)" fill="#D9D9D9" stroke="#999999"/>
<path d="M22.5789 46.7273L31 32H9.42105L0.999998 46.7273H11V62H25.7368V46.7273H22.5789Z" fill="#010684"/>
<rect x="434.5" y="93.5" width="31" height="31" transform="rotate(180 434.5 93.5)" fill="#D9D9D9" stroke="#999999"/>
<path d="M425.579 78.2727L434 93H412.421L404 78.2727H414V63H428.737V78.2727H425.579Z" fill="#010684"/>
<rect x="0.5" y="-0.5" width="31" height="31" transform="matrix(-1 0 0 1 32 94)" fill="#D9D9D9" stroke="#999999"/>
<path d="M22.5789 108.727L31 94H9.42105L0.999998 108.727H11V124H25.7368V108.727H22.5789Z" fill="#010684"/>
<rect x="434.5" y="31.5" width="31" height="31" transform="rotate(180 434.5 31.5)" fill="#D9D9D9" stroke="#999999"/>
<path d="M425.579 16.2727L434 31H412.421L404 16.2727H414V1H428.737V16.2727H425.579Z" fill="#010684"/>
<rect x="372.5" y="31.5" width="31" height="31" fill="#D9D9D9" stroke="#999999"/>
<path d="M381.421 46.7273L373 32H394.579L403 46.7273H393V62H378.263V46.7273H381.421Z" fill="#010684"/>
<rect x="-0.5" y="0.5" width="31" height="31" transform="matrix(1 0 0 -1 776 94)" fill="#D9D9D9" stroke="#999999"/>
<path d="M784.421 78.2727L776 93H797.579L806 78.2727H796V63H781.263V78.2727H784.421Z" fill="#010684"/>
<rect x="279.5" y="62.5" width="31" height="31" fill="#D9D9D9" stroke="#999999"/>
<path d="M301.579 78.2727L310 93L288.421 93L280 78.2727L290 78.2727L290 63L304.737 63L304.737 78.2727L301.579 78.2727Z" fill="#010684"/>
<rect x="-0.5" y="0.5" width="31" height="31" transform="matrix(1 0 0 -1 683 63)" fill="#D9D9D9" stroke="#999999"/>
<path d="M704.579 46.7273L713 32L691.421 32L683 46.7273L693 46.7273L693 62L707.737 62L707.737 46.7273L704.579 46.7273Z" fill="#010684"/>
<rect x="0.5" y="-0.5" width="31" height="31" transform="matrix(-1 0 0 1 125 1)" fill="#D9D9D9" stroke="#999999"/>
<path d="M102.421 16.2727L94 31L115.579 31L124 16.2727L114 16.2727L114 1L99.2632 1L99.2632 16.2727L102.421 16.2727Z" fill="#010684"/>
<rect x="527.5" y="124.5" width="31" height="31" transform="rotate(180 527.5 124.5)" fill="#D9D9D9" stroke="#999999"/>
<path d="M505.421 108.727L497 94L518.579 94L527 108.727L517 108.727L517 124L502.263 124L502.263 108.727L505.421 108.727Z" fill="#010684"/>
<rect x="0.5" y="-0.5" width="31" height="31" transform="matrix(-1 0 0 1 94 63)" fill="#D9D9D9" stroke="#999999"/>
<path d="M71.4211 78.2727L63 93L84.5789 93L93 78.2727L83 78.2727L83 63L68.2632 63L68.2632 78.2727L71.4211 78.2727Z" fill="#010684"/>
<rect x="496.5" y="62.5" width="31" height="31" transform="rotate(180 496.5 62.5)" fill="#D9D9D9" stroke="#999999"/>
<path d="M474.421 46.7273L466 32L487.579 32L496 46.7273L486 46.7273L486 62L471.263 62L471.263 46.7273L474.421 46.7273Z" fill="#010684"/>
<rect x="310.5" y="0.5" width="31" height="31" fill="#D9D9D9" stroke="#999999"/>
<path d="M332.579 16.2727L341 31L319.421 31L311 16.2727L321 16.2727L321 1L335.737 1L335.737 16.2727L332.579 16.2727Z" fill="#010684"/>
<rect x="-0.5" y="0.5" width="31" height="31" transform="matrix(1 0 0 -1 714 125)" fill="#D9D9D9" stroke="#999999"/>
<path d="M735.579 108.727L744 94L722.421 94L714 108.727L724 108.727L724 124L738.737 124L738.737 108.727L735.579 108.727Z" fill="#010684"/>
<rect x="155.5" y="62.5" width="31" height="31" fill="#D9D9D9" stroke="#999999"/>
<path d="M156 83.4545V63C158.857 66.6364 165.964 73.9091 171.536 73.9091C177.107 73.9091 183.5 66.6364 186 63V84.8182C184.393 87.5455 179.25 93 171.536 93C163.821 93 157.964 86.6364 156 83.4545Z" fill="#010684"/>
<rect x="-0.5" y="0.5" width="31" height="31" transform="matrix(1 0 0 -1 559 63)" fill="#D9D9D9" stroke="#999999"/>
<path d="M559 41.5455V62C561.857 58.3636 568.964 51.0909 574.536 51.0909C580.107 51.0909 586.5 58.3636 589 62V40.1818C587.393 37.4545 582.25 32 574.536 32C566.821 32 560.964 38.3636 559 41.5455Z" fill="#010684"/>
<rect x="0.5" y="-0.5" width="31" height="31" transform="matrix(-1 0 0 1 249 1)" fill="#D9D9D9" stroke="#999999"/>
<path d="M248 21.4545V1C245.143 4.63636 238.036 11.9091 232.464 11.9091C226.893 11.9091 220.5 4.63636 218 1V22.8182C219.607 25.5455 224.75 31 232.464 31C240.179 31 246.036 24.6364 248 21.4545Z" fill="#010684"/>
<rect x="651.5" y="124.5" width="31" height="31" transform="rotate(180 651.5 124.5)" fill="#D9D9D9" stroke="#999999"/>
<path d="M651 103.545V124C648.143 120.364 641.036 113.091 635.464 113.091C629.893 113.091 623.5 120.364 621 124V102.182C622.607 99.4545 627.75 94 635.464 94C643.179 94 649.036 100.364 651 103.545Z" fill="#010684"/>
<rect x="0.5" y="-0.5" width="31" height="31" transform="matrix(-1 0 0 1 249 94)" fill="#D9D9D9" stroke="#999999"/>
<path d="M248 114.455V94C245.143 97.6364 238.036 104.909 232.464 104.909C226.893 104.909 220.5 97.6364 218 94V115.818C219.607 118.545 224.75 124 232.464 124C240.179 124 246.036 117.636 248 114.455Z" fill="#010684"/>
<rect x="651.5" y="31.5" width="31" height="31" transform="rotate(180 651.5 31.5)" fill="#D9D9D9" stroke="#999999"/>
<path d="M651 10.5455V31C648.143 27.3636 641.036 20.0909 635.464 20.0909C629.893 20.0909 623.5 27.3636 621 31V9.18182C622.607 6.45455 627.75 1 635.464 1C643.179 1 649.036 7.36364 651 10.5455Z" fill="#010684"/>
<rect x="155.5" y="31.5" width="31" height="31" fill="#D9D9D9" stroke="#999999"/>
<path d="M156 52.4545V32C158.857 35.6364 165.964 42.9091 171.536 42.9091C177.107 42.9091 183.5 35.6364 186 32V53.8182C184.393 56.5455 179.25 62 171.536 62C163.821 62 157.964 55.6364 156 52.4545Z" fill="#010684"/>
<rect x="-0.5" y="0.5" width="31" height="31" transform="matrix(1 0 0 -1 559 94)" fill="#D9D9D9" stroke="#999999"/>
<path d="M559 72.5455V93C561.857 89.3636 568.964 82.0909 574.536 82.0909C580.107 82.0909 586.5 89.3636 589 93V71.1818C587.393 68.4545 582.25 63 574.536 63C566.821 63 560.964 69.3636 559 72.5455Z" fill="#010684"/>
<rect x="248.5" y="93.5" width="31" height="31" fill="#D9D9D9" stroke="#999999"/>
<path d="M249 103.545V124C251.857 120.364 258.964 113.091 264.536 113.091C270.107 113.091 276.5 120.364 279 124V102.182C277.393 99.4545 272.25 94 264.536 94C256.821 94 250.964 100.364 249 103.545Z" fill="#010684"/>
<rect x="-0.5" y="0.5" width="31" height="31" transform="matrix(1 0 0 -1 652 32)" fill="#D9D9D9" stroke="#999999"/>
<path d="M652 21.4545V1C654.857 4.63636 661.964 11.9091 667.536 11.9091C673.107 11.9091 679.5 4.63636 682 1V22.8182C680.393 25.5455 675.25 31 667.536 31C659.821 31 653.964 24.6364 652 21.4545Z" fill="#010684"/>
<rect x="0.5" y="-0.5" width="31" height="31" transform="matrix(-1 0 0 1 156 32)" fill="#D9D9D9" stroke="#999999"/>
<path d="M155 41.5455V62C152.143 58.3636 145.036 51.0909 139.464 51.0909C133.893 51.0909 127.5 58.3636 125 62V40.1818C126.607 37.4545 131.75 32 139.464 32C147.179 32 153.036 38.3636 155 41.5455Z" fill="#010684"/>
<rect x="558.5" y="93.5" width="31" height="31" transform="rotate(180 558.5 93.5)" fill="#D9D9D9" stroke="#999999"/>
<path d="M558 83.4545V63C555.143 66.6364 548.036 73.9091 542.464 73.9091C536.893 73.9091 530.5 66.6364 528 63V84.8182C529.607 87.5455 534.75 93 542.464 93C550.179 93 556.036 86.6364 558 83.4545Z" fill="#010684"/>
<rect x="0.5" y="-0.5" width="31" height="31" transform="matrix(-1 0 0 1 125 94)" fill="#D9D9D9" stroke="#999999"/>
<path d="M124 103.545V124C121.143 120.364 114.036 113.091 108.464 113.091C102.893 113.091 96.5 120.364 94 124V102.182C95.6071 99.4545 100.75 94 108.464 94C116.179 94 122.036 100.364 124 103.545Z" fill="#010684"/>
<rect x="527.5" y="31.5" width="31" height="31" transform="rotate(180 527.5 31.5)" fill="#D9D9D9" stroke="#999999"/>
<path d="M527 21.4545V1C524.143 4.63636 517.036 11.9091 511.464 11.9091C505.893 11.9091 499.5 4.63636 497 1V22.8182C498.607 25.5455 503.75 31 511.464 31C519.179 31 525.036 24.6364 527 21.4545Z" fill="#010684"/>
<rect x="279.5" y="31.5" width="31" height="31" fill="#D9D9D9" stroke="#999999"/>
<path d="M280 41.5455V62C282.857 58.3636 289.964 51.0909 295.536 51.0909C301.107 51.0909 307.5 58.3636 310 62V40.1818C308.393 37.4545 303.25 32 295.536 32C287.821 32 281.964 38.3636 280 41.5455Z" fill="#010684"/>
<rect x="-0.5" y="0.5" width="31" height="31" transform="matrix(1 0 0 -1 683 94)" fill="#D9D9D9" stroke="#999999"/>
<path d="M683 83.4545V63C685.857 66.6364 692.964 73.9091 698.536 73.9091C704.107 73.9091 710.5 66.6364 713 63V84.8182C711.393 87.5455 706.25 93 698.536 93C690.821 93 684.964 86.6364 683 83.4545Z" fill="#010684"/>
<rect x="186.5" y="62.5" width="31" height="31" fill="#D9D9D9" stroke="#999999"/>
<path d="M196.217 63L215.966 63C212.455 65.8571 205.433 72.9643 205.433 78.5357C205.433 84.1071 212.455 90.5 215.966 93L194.9 93C192.267 91.3929 187 86.25 187 78.5357C187 70.8214 193.145 64.9643 196.217 63Z" fill="#010684"/>
<rect x="-0.5" y="0.5" width="31" height="31" transform="matrix(1 0 0 -1 590 63)" fill="#D9D9D9" stroke="#999999"/>
<path d="M599.217 62L618.966 62C615.455 59.1429 608.433 52.0357 608.433 46.4643C608.433 40.8929 615.455 34.5 618.966 32L597.9 32C595.267 33.6071 590 38.75 590 46.4643C590 54.1786 596.145 60.0357 599.217 62Z" fill="#010684"/>
<rect x="0.5" y="-0.5" width="31" height="31" transform="matrix(-1 0 0 1 218 1)" fill="#D9D9D9" stroke="#999999"/>
<path d="M207.783 0.999999L188.034 1C191.545 3.85714 198.567 10.9643 198.567 16.5357C198.567 22.1071 191.545 28.5 188.034 31L209.1 31C211.733 29.3929 217 24.25 217 16.5357C217 8.82143 210.855 2.96428 207.783 0.999999Z" fill="#010684"/>
<rect x="620.5" y="124.5" width="31" height="31" transform="rotate(180 620.5 124.5)" fill="#D9D9D9" stroke="#999999"/>
<path d="M610.783 124L591.034 124C594.545 121.143 601.567 114.036 601.567 108.464C601.567 102.893 594.545 96.5 591.034 94L612.1 94C614.733 95.6071 620 100.75 620 108.464C620 116.179 613.855 122.036 610.783 124Z" fill="#010684"/>
<rect x="0.5" y="-0.5" width="31" height="31" transform="matrix(-1 0 0 1 125 63)" fill="#D9D9D9" stroke="#999999"/>
<path d="M114.783 63L95.0342 63C98.5452 65.8571 105.567 72.9643 105.567 78.5357C105.567 84.1071 98.5452 90.5 95.0342 93L116.1 93C118.733 91.3929 124 86.25 124 78.5357C124 70.8214 117.855 64.9643 114.783 63Z" fill="#010684"/>
<rect x="527.5" y="62.5" width="31" height="31" transform="rotate(180 527.5 62.5)" fill="#D9D9D9" stroke="#999999"/>
<path d="M517.783 62L498.034 62C501.545 59.1429 508.567 52.0357 508.567 46.4643C508.567 40.8929 501.545 34.5 498.034 32L519.1 32C521.733 33.6071 527 38.75 527 46.4643C527 54.1786 520.855 60.0357 517.783 62Z" fill="#010684"/>
<rect x="279.5" y="0.5" width="31" height="31" fill="#D9D9D9" stroke="#999999"/>
<path d="M289.217 0.999999L308.966 1C305.455 3.85714 298.433 10.9643 298.433 16.5357C298.433 22.1071 305.455 28.5 308.966 31L287.9 31C285.267 29.3929 280 24.25 280 16.5357C280 8.82143 286.145 2.96428 289.217 0.999999Z" fill="#010684"/>
<rect x="-0.5" y="0.5" width="31" height="31" transform="matrix(1 0 0 -1 683 125)" fill="#D9D9D9" stroke="#999999"/>
<path d="M692.217 124L711.966 124C708.455 121.143 701.433 114.036 701.433 108.464C701.433 102.893 708.455 96.5 711.966 94L690.9 94C688.267 95.6071 683 100.75 683 108.464C683 116.179 689.145 122.036 692.217 124Z" fill="#010684"/>
<rect x="0.5" y="-0.5" width="31" height="31" transform="matrix(-1 0 0 1 652 217)" fill="#D9D9D9" stroke="#999999"/>
<path d="M635.211 225.57H651V240.57H635.211L623.105 246.999H621V232.535L635.211 225.57Z" fill="#010684"/>
<rect x="248.5" y="154.5" width="31" height="31" transform="rotate(180 248.5 154.5)" fill="#D9D9D9" stroke="#999999"/>
<path d="M232.211 145.43H248V130.43H232.211L220.105 124.001H218V138.465L232.211 145.43Z" fill="#010684"/>
<rect x="558.5" y="154.5" width="31" height="31" fill="#D9D9D9" stroke="#999999"/>
<path d="M574.789 163.57H559V178.57H574.789L586.895 184.999H589V170.535L574.789 163.57Z" fill="#010684"/>
<rect x="-0.5" y="0.5" width="31" height="31" transform="matrix(1 0 0 -1 156 217)" fill="#D9D9D9" stroke="#999999"/>
<path d="M171.789 207.43H156V192.43H171.789L183.895 186.001H186V200.465L171.789 207.43Z" fill="#010684"/>
<rect x="465.5" y="185.5" width="31" height="31" fill="#D9D9D9" stroke="#999999"/>
<path d="M481.789 194.57H466V209.57H481.789L493.895 215.999H496V201.535L481.789 194.57Z" fill="#010684"/>
<rect x="-0.5" y="0.5" width="31" height="31" transform="matrix(1 0 0 -1 63 186)" fill="#D9D9D9" stroke="#999999"/>
<path d="M78.7895 176.43H63V161.43H78.7895L90.8947 155.001H93V169.465L78.7895 176.43Z" fill="#010684"/>
<rect x="0.5" y="-0.5" width="31" height="31" transform="matrix(-1 0 0 1 745 124)" fill="#D9D9D9" stroke="#999999"/>
<path d="M728.211 132.57H744V147.57H728.211L716.105 153.999H714V139.535L728.211 132.57Z" fill="#010684"/>
<rect x="341.5" y="247.5" width="31" height="31" transform="rotate(180 341.5 247.5)" fill="#D9D9D9" stroke="#999999"/>
<path d="M325.211 238.43H341V223.43H325.211L313.105 217.001H311V231.465L325.211 238.43Z" fill="#010684"/>
<rect x="0.5" y="-0.5" width="31" height="31" transform="matrix(-1 0 0 1 776 217)" fill="#D9D9D9" stroke="#999999"/>
<path d="M765.689 231.211L765.689 247L751.207 247L751.207 231.211L745 219.105L745 217L758.965 217L765.689 231.211Z" fill="#010684"/>
<rect x="372.5" y="154.5" width="31" height="31" transform="rotate(180 372.5 154.5)" fill="#D9D9D9" stroke="#999999"/>
<path d="M362.689 139.789L362.689 124L348.207 124L348.207 139.789L342 151.895L342 154L355.965 154L362.689 139.789Z" fill="#010684"/>
<rect x="434.5" y="154.5" width="31" height="31" fill="#D9D9D9" stroke="#999999"/>
<path d="M444.311 169.211L444.311 185L458.793 185L458.793 169.211L465 157.105L465 155L451.035 155L444.311 169.211Z" fill="#010684"/>
<rect x="-0.5" y="0.5" width="31" height="31" transform="matrix(1 0 0 -1 32 217)" fill="#D9D9D9" stroke="#999999"/>
<path d="M41.3105 201.789L41.3105 186L55.7933 186L55.7933 201.789L62.0002 213.895L62.0002 216L48.0347 216L41.3105 201.789Z" fill="#010684"/>
<rect x="403.5" y="185.5" width="31" height="31" fill="#D9D9D9" stroke="#999999"/>
<path d="M413.311 200.211L413.311 216L427.793 216L427.793 200.211L434 188.105L434 186L420.035 186L413.311 200.211Z" fill="#010684"/>
<rect x="-0.5" y="0.5" width="31" height="31" transform="matrix(1 0 0 -1 1 186)" fill="#D9D9D9" stroke="#999999"/>
<path d="M10.3105 170.789L10.3105 155L24.7933 155L24.7933 170.789L31.0002 182.895L31.0002 185L17.0347 185L10.3105 170.789Z" fill="#010684"/>
<rect x="0.5" y="-0.5" width="31" height="31" transform="matrix(-1 0 0 1 807 124)" fill="#D9D9D9" stroke="#999999"/>
<path d="M796.689 138.211L796.689 154L782.207 154L782.207 138.211L776 126.105L776 124L789.965 124L796.689 138.211Z" fill="#010684"/>
<rect x="403.5" y="247.5" width="31" height="31" transform="rotate(180 403.5 247.5)" fill="#D9D9D9" stroke="#999999"/>
<path d="M393.689 232.789L393.689 217L379.207 217L379.207 232.789L373 244.895L373 247L386.965 247L393.689 232.789Z" fill="#010684"/>
<rect x="0.5" y="-0.5" width="31" height="31" transform="matrix(-1 0 0 1 466 217)" fill="#D9D9D9" stroke="#999999"/>
<path d="M455.689 231.211L455.689 247L441.207 247L441.207 231.211L435 219.105L435 217L448.965 217L455.689 231.211Z" fill="#010684"/>
<rect x="62.5" y="154.5" width="31" height="31" transform="rotate(180 62.5 154.5)" fill="#D9D9D9" stroke="#999999"/>
<path d="M52.6895 139.789L52.6895 124L38.2067 124L38.2067 139.789L31.9998 151.895L31.9998 154L45.9653 154L52.6895 139.789Z" fill="#010684"/>
<rect x="744.5" y="154.5" width="31" height="31" fill="#D9D9D9" stroke="#999999"/>
<path d="M754.311 169.211L754.311 185L768.793 185L768.793 169.211L775 157.105L775 155L761.035 155L754.311 169.211Z" fill="#010684"/>
<rect x="-0.5" y="0.5" width="31" height="31" transform="matrix(1 0 0 -1 342 217)" fill="#D9D9D9" stroke="#999999"/>
<path d="M351.311 201.789L351.311 186L365.793 186L365.793 201.789L372 213.895L372 216L358.035 216L351.311 201.789Z" fill="#010684"/>
<rect x="775.5" y="185.5" width="31" height="31" fill="#D9D9D9" stroke="#999999"/>
<path d="M785.311 200.211L785.311 216L799.793 216L799.793 200.211L806 188.105L806 186L792.035 186L785.311 200.211Z" fill="#010684"/>
<rect x="-0.5" y="0.5" width="31" height="31" transform="matrix(1 0 0 -1 373 186)" fill="#D9D9D9" stroke="#999999"/>
<path d="M382.311 170.789L382.311 155L396.793 155L396.793 170.789L403 182.895L403 185L389.035 185L382.311 170.789Z" fill="#010684"/>
<rect x="0.5" y="-0.5" width="31" height="31" transform="matrix(-1 0 0 1 435 124)" fill="#D9D9D9" stroke="#999999"/>
<path d="M424.689 138.211L424.689 154L410.207 154L410.207 138.211L404 126.105L404 124L417.965 124L424.689 138.211Z" fill="#010684"/>
<rect x="31.5" y="247.5" width="31" height="31" transform="rotate(180 31.5 247.5)" fill="#D9D9D9" stroke="#999999"/>
<path d="M21.6895 232.789L21.6895 217L7.2067 217L7.2067 232.789L0.999799 244.895L0.999799 247L14.9653 247L21.6895 232.789Z" fill="#010684"/>
<rect x="0.5" y="-0.5" width="31" height="31" transform="matrix(-1 0 0 1 621 217)" fill="#D9D9D9" stroke="#999999"/>
<rect x="217.5" y="154.5" width="31" height="31" transform="rotate(180 217.5 154.5)" fill="#D9D9D9" stroke="#999999"/>
<rect x="589.5" y="154.5" width="31" height="31" fill="#D9D9D9" stroke="#999999"/>
<rect x="-0.5" y="0.5" width="31" height="31" transform="matrix(1 0 0 -1 187 217)" fill="#D9D9D9" stroke="#999999"/>
<rect x="558.5" y="185.5" width="31" height="31" fill="#D9D9D9" stroke="#999999"/>
<rect x="-0.5" y="0.5" width="31" height="31" transform="matrix(1 0 0 -1 156 186)" fill="#D9D9D9" stroke="#999999"/>
<rect x="0.5" y="-0.5" width="31" height="31" transform="matrix(-1 0 0 1 652 124)" fill="#D9D9D9" stroke="#999999"/>
<rect x="248.5" y="247.5" width="31" height="31" transform="rotate(180 248.5 247.5)" fill="#D9D9D9" stroke="#999999"/>
<rect x="0.5" y="-0.5" width="31" height="31" transform="matrix(-1 0 0 1 466 186)" fill="#D9D9D9" stroke="#999999"/>
<rect x="62.5" y="185.5" width="31" height="31" transform="rotate(180 62.5 185.5)" fill="#D9D9D9" stroke="#999999"/>
<rect x="744.5" y="123.5" width="31" height="31" fill="#D9D9D9" stroke="#999999"/>
<rect x="-0.5" y="0.5" width="31" height="31" transform="matrix(1 0 0 -1 342 248)" fill="#D9D9D9" stroke="#999999"/>
<rect x="744.5" y="185.5" width="31" height="31" fill="#D9D9D9" stroke="#999999"/>
<rect x="-0.5" y="0.5" width="31" height="31" transform="matrix(1 0 0 -1 342 186)" fill="#D9D9D9" stroke="#999999"/>
<rect x="0.5" y="-0.5" width="31" height="31" transform="matrix(-1 0 0 1 466 124)" fill="#D9D9D9" stroke="#999999"/>
<rect x="62.5" y="247.5" width="31" height="31" transform="rotate(180 62.5 247.5)" fill="#D9D9D9" stroke="#999999"/>
<rect x="0.5" y="-0.5" width="31" height="31" transform="matrix(-1 0 0 1 528 217)" fill="#D9D9D9" stroke="#999999"/>
<rect x="124.5" y="154.5" width="31" height="31" transform="rotate(180 124.5 154.5)" fill="#D9D9D9" stroke="#999999"/>
<rect x="682.5" y="154.5" width="31" height="31" fill="#D9D9D9" stroke="#999999"/>
<rect x="-0.5" y="0.5" width="31" height="31" transform="matrix(1 0 0 -1 280 217)" fill="#D9D9D9" stroke="#999999"/>
<rect x="651.5" y="185.5" width="31" height="31" fill="#D9D9D9" stroke="#999999"/>
<rect x="-0.5" y="0.5" width="31" height="31" transform="matrix(1 0 0 -1 249 186)" fill="#D9D9D9" stroke="#999999"/>
<rect x="0.5" y="-0.5" width="31" height="31" transform="matrix(-1 0 0 1 559 124)" fill="#D9D9D9" stroke="#999999"/>
<rect x="155.5" y="247.5" width="31" height="31" transform="rotate(180 155.5 247.5)" fill="#D9D9D9" stroke="#999999"/>
<rect x="0.5" y="-0.5" width="31" height="31" transform="matrix(-1 0 0 1 745 217)" fill="#D9D9D9" stroke="#999999"/>
<path d="M735.579 231.727L744 217H722.421L714 231.727H724V247H738.737V231.727H735.579Z" fill="#010684"/>
<rect x="341.5" y="154.5" width="31" height="31" transform="rotate(180 341.5 154.5)" fill="#D9D9D9" stroke="#999999"/>
<path d="M332.579 139.273L341 154H319.421L311 139.273H321V124H335.737V139.273H332.579Z" fill="#010684"/>
<rect x="465.5" y="154.5" width="31" height="31" fill="#D9D9D9" stroke="#999999"/>
<path d="M474.421 169.727L466 155H487.579L496 169.727H486V185H471.263V169.727H474.421Z" fill="#010684"/>
<rect x="-0.5" y="0.5" width="31" height="31" transform="matrix(1 0 0 -1 63 217)" fill="#D9D9D9" stroke="#999999"/>
<path d="M71.4211 201.273L63 216H84.5789L93 201.273H83V186H68.2632V201.273H71.4211Z" fill="#010684"/>
<rect x="465.5" y="216.5" width="31" height="31" fill="#D9D9D9" stroke="#999999"/>
<path d="M474.421 231.727L466 217H487.579L496 231.727H486V247H471.263V231.727H474.421Z" fill="#010684"/>
<rect x="-0.5" y="0.5" width="31" height="31" transform="matrix(1 0 0 -1 63 155)" fill="#D9D9D9" stroke="#999999"/>
<path d="M71.4211 139.273L63 154H84.5789L93 139.273H83V124H68.2632V139.273H71.4211Z" fill="#010684"/>
<rect x="0.5" y="-0.5" width="31" height="31" transform="matrix(-1 0 0 1 745 155)" fill="#D9D9D9" stroke="#999999"/>
<path d="M735.579 169.727L744 155H722.421L714 169.727H724V185H738.737V169.727H735.579Z" fill="#010684"/>
<rect x="341.5" y="216.5" width="31" height="31" transform="rotate(180 341.5 216.5)" fill="#D9D9D9" stroke="#999999"/>
<path d="M332.579 201.273L341 216H319.421L311 201.273H321V186H335.737V201.273H332.579Z" fill="#010684"/>
<rect x="-0.5" y="0.5" width="31" height="31" transform="matrix(1 -8.74228e-08 -8.74228e-08 -1 528 217)" fill="#D9D9D9" stroke="#999999"/>
<path d="M536.421 201.273L528 216L549.579 216L558 201.273L548 201.273L548 186L533.263 186L533.263 201.273L536.421 201.273Z" fill="#010684"/>
<rect x="124.5" y="154.5" width="31" height="31" fill="#D9D9D9" stroke="#999999"/>
<path d="M133.421 169.727L125 155L146.579 155L155 169.727L145 169.727L145 185L130.263 185L130.263 169.727L133.421 169.727Z" fill="#010684"/>
<rect x="682.5" y="154.5" width="31" height="31" transform="rotate(-180 682.5 154.5)" fill="#D9D9D9" stroke="#999999"/>
<path d="M673.579 139.273L682 154L660.421 154L652 139.273L662 139.273L662 124L676.737 124L676.737 139.273L673.579 139.273Z" fill="#010684"/>
<rect x="0.5" y="-0.5" width="31" height="31" transform="matrix(-1 8.74228e-08 8.74228e-08 1 280 217)" fill="#D9D9D9" stroke="#999999"/>
<path d="M270.579 231.727L279 217L257.421 217L249 231.727L259 231.727L259 247L273.737 247L273.737 231.727L270.579 231.727Z" fill="#010684"/>
<rect x="682.5" y="247.5" width="31" height="31" transform="rotate(-180 682.5 247.5)" fill="#D9D9D9" stroke="#999999"/>
<path d="M673.579 232.273L682 247L660.421 247L652 232.273L662 232.273L662 217L676.737 217L676.737 232.273L673.579 232.273Z" fill="#010684"/>
<rect x="0.5" y="-0.5" width="31" height="31" transform="matrix(-1 8.74228e-08 8.74228e-08 1 280 124)" fill="#D9D9D9" stroke="#999999"/>
<path d="M270.579 138.727L279 124L257.421 124L249 138.727L259 138.727L259 154L273.737 154L273.737 138.727L270.579 138.727Z" fill="#010684"/>
<rect x="-0.5" y="0.5" width="31" height="31" transform="matrix(1 -8.74228e-08 -8.74228e-08 -1 528 186)" fill="#D9D9D9" stroke="#999999"/>
<path d="M536.421 170.273L528 185L549.579 185L558 170.273L548 170.273L548 155L533.263 155L533.263 170.273L536.421 170.273Z" fill="#010684"/>
<rect x="124.5" y="185.5" width="31" height="31" fill="#D9D9D9" stroke="#999999"/>
<path d="M133.421 200.727L125 186L146.579 186L155 200.727L145 200.727L145 216L130.263 216L130.263 200.727L133.421 200.727Z" fill="#010684"/>
<rect x="0.5" y="-0.5" width="31" height="31" transform="matrix(-1 0 0 1 435 217)" fill="#D9D9D9" stroke="#999999"/>
<path d="M425.579 231.727L434 217H412.421L404 231.727H414V247H428.737V231.727H425.579Z" fill="#010684"/>
<rect x="31.5" y="154.5" width="31" height="31" transform="rotate(180 31.5 154.5)" fill="#D9D9D9" stroke="#999999"/>
<path d="M22.5789 139.273L31 154H9.42105L0.999998 139.273H11V124H25.7368V139.273H22.5789Z" fill="#010684"/>
<rect x="775.5" y="154.5" width="31" height="31" fill="#D9D9D9" stroke="#999999"/>
<path d="M784.421 169.727L776 155H797.579L806 169.727H796V185H781.263V169.727H784.421Z" fill="#010684"/>
<rect x="-0.5" y="0.5" width="31" height="31" transform="matrix(1 0 0 -1 373 217)" fill="#D9D9D9" stroke="#999999"/>
<path d="M381.421 201.273L373 216H394.579L403 201.273H393V186H378.263V201.273H381.421Z" fill="#010684"/>
<rect x="775.5" y="216.5" width="31" height="31" fill="#D9D9D9" stroke="#999999"/>
<path d="M784.421 231.727L776 217H797.579L806 231.727H796V247H781.263V231.727H784.421Z" fill="#010684"/>
<rect x="-0.5" y="0.5" width="31" height="31" transform="matrix(1 0 0 -1 373 155)" fill="#D9D9D9" stroke="#999999"/>
<path d="M381.421 139.273L373 154H394.579L403 139.273H393V124H378.263V139.273H381.421Z" fill="#010684"/>
<rect x="0.5" y="-0.5" width="31" height="31" transform="matrix(-1 0 0 1 435 155)" fill="#D9D9D9" stroke="#999999"/>
<path d="M425.579 169.727L434 155H412.421L404 169.727H414V185H428.737V169.727H425.579Z" fill="#010684"/>
<rect x="31.5" y="216.5" width="31" height="31" transform="rotate(180 31.5 216.5)" fill="#D9D9D9" stroke="#999999"/>
<path d="M22.5789 201.273L31 216H9.42105L0.999998 201.273H11V186H25.7368V201.273H22.5789Z" fill="#010684"/>
<rect x="0.5" y="-0.5" width="31" height="31" transform="matrix(-1 0 0 1 528 186)" fill="#D9D9D9" stroke="#999999"/>
<path d="M505.421 201.273L497 216L518.579 216L527 201.273L517 201.273L517 186L502.263 186L502.263 201.273L505.421 201.273Z" fill="#010684"/>
<rect x="124.5" y="185.5" width="31" height="31" transform="rotate(180 124.5 185.5)" fill="#D9D9D9" stroke="#999999"/>
<path d="M102.421 169.727L94 155L115.579 155L124 169.727L114 169.727L114 185L99.2632 185L99.2632 169.727L102.421 169.727Z" fill="#010684"/>
<rect x="682.5" y="123.5" width="31" height="31" fill="#D9D9D9" stroke="#999999"/>
<path d="M704.579 139.273L713 154L691.421 154L683 139.273L693 139.273L693 124L707.737 124L707.737 139.273L704.579 139.273Z" fill="#010684"/>
<rect x="-0.5" y="0.5" width="31" height="31" transform="matrix(1 0 0 -1 280 248)" fill="#D9D9D9" stroke="#999999"/>
<path d="M301.579 231.727L310 217L288.421 217L280 231.727L290 231.727L290 247L304.737 247L304.737 231.727L301.579 231.727Z" fill="#010684"/>
<rect x="713.5" y="185.5" width="31" height="31" fill="#D9D9D9" stroke="#999999"/>
<path d="M735.579 201.273L744 216L722.421 216L714 201.273L724 201.273L724 186L738.737 186L738.737 201.273L735.579 201.273Z" fill="#010684"/>
<rect x="-0.5" y="0.5" width="31" height="31" transform="matrix(1 0 0 -1 311 186)" fill="#D9D9D9" stroke="#999999"/>
<path d="M332.579 169.727L341 155L319.421 155L311 169.727L321 169.727L321 185L335.737 185L335.737 169.727L332.579 169.727Z" fill="#010684"/>
<rect x="0.5" y="-0.5" width="31" height="31" transform="matrix(-1 0 0 1 497 124)" fill="#D9D9D9" stroke="#999999"/>
<path d="M474.421 139.273L466 154L487.579 154L496 139.273L486 139.273L486 124L471.263 124L471.263 139.273L474.421 139.273Z" fill="#010684"/>
<rect x="93.5" y="247.5" width="31" height="31" transform="rotate(180 93.5 247.5)" fill="#D9D9D9" stroke="#999999"/>
<path d="M71.4211 231.727L63 217L84.5789 217L93 231.727L83 231.727L83 247L68.2632 247L68.2632 231.727L71.4211 231.727Z" fill="#010684"/>
<rect x="0.5" y="-0.5" width="31" height="31" transform="matrix(-1 0 0 1 652 186)" fill="#D9D9D9" stroke="#999999"/>
<path d="M651 206.455V186C648.143 189.636 641.036 196.909 635.464 196.909C629.893 196.909 623.5 189.636 621 186V207.818C622.607 210.545 627.75 216 635.464 216C643.179 216 649.036 209.636 651 206.455Z" fill="#010684"/>
<rect x="248.5" y="185.5" width="31" height="31" transform="rotate(180 248.5 185.5)" fill="#D9D9D9" stroke="#999999"/>
<path d="M248 164.545V185C245.143 181.364 238.036 174.091 232.464 174.091C226.893 174.091 220.5 181.364 218 185V163.182C219.607 160.455 224.75 155 232.464 155C240.179 155 246.036 161.364 248 164.545Z" fill="#010684"/>
<rect x="558.5" y="123.5" width="31" height="31" fill="#D9D9D9" stroke="#999999"/>
<path d="M559 144.455V124C561.857 127.636 568.964 134.909 574.536 134.909C580.107 134.909 586.5 127.636 589 124V145.818C587.393 148.545 582.25 154 574.536 154C566.821 154 560.964 147.636 559 144.455Z" fill="#010684"/>
<rect x="-0.5" y="0.5" width="31" height="31" transform="matrix(1 0 0 -1 156 248)" fill="#D9D9D9" stroke="#999999"/>
<path d="M156 226.545V247C158.857 243.364 165.964 236.091 171.536 236.091C177.107 236.091 183.5 243.364 186 247V225.182C184.393 222.455 179.25 217 171.536 217C163.821 217 157.964 223.364 156 226.545Z" fill="#010684"/>
<rect x="558.5" y="216.5" width="31" height="31" fill="#D9D9D9" stroke="#999999"/>
<path d="M559 237.455V217C561.857 220.636 568.964 227.909 574.536 227.909C580.107 227.909 586.5 220.636 589 217V238.818C587.393 241.545 582.25 247 574.536 247C566.821 247 560.964 240.636 559 237.455Z" fill="#010684"/>
<rect x="-0.5" y="0.5" width="31" height="31" transform="matrix(1 0 0 -1 156 155)" fill="#D9D9D9" stroke="#999999"/>
<path d="M156 133.545V154C158.857 150.364 165.964 143.091 171.536 143.091C177.107 143.091 183.5 150.364 186 154V132.182C184.393 129.455 179.25 124 171.536 124C163.821 124 157.964 130.364 156 133.545Z" fill="#010684"/>
<rect x="0.5" y="-0.5" width="31" height="31" transform="matrix(-1 0 0 1 652 155)" fill="#D9D9D9" stroke="#999999"/>
<path d="M651 175.455V155C648.143 158.636 641.036 165.909 635.464 165.909C629.893 165.909 623.5 158.636 621 155V176.818C622.607 179.545 627.75 185 635.464 185C643.179 185 649.036 178.636 651 175.455Z" fill="#010684"/>
<rect x="248.5" y="216.5" width="31" height="31" transform="rotate(180 248.5 216.5)" fill="#D9D9D9" stroke="#999999"/>
<path d="M248 195.545V216C245.143 212.364 238.036 205.091 232.464 205.091C226.893 205.091 220.5 212.364 218 216V194.182C219.607 191.455 224.75 186 232.464 186C240.179 186 246.036 192.364 248 195.545Z" fill="#010684"/>
<rect x="0.5" y="-0.5" width="31" height="31" transform="matrix(-1 0 0 1 559 217)" fill="#D9D9D9" stroke="#999999"/>
<path d="M558 226.545V247C555.143 243.364 548.036 236.091 542.464 236.091C536.893 236.091 530.5 243.364 528 247V225.182C529.607 222.455 534.75 217 542.464 217C550.179 217 556.036 223.364 558 226.545Z" fill="#010684"/>
<rect x="155.5" y="154.5" width="31" height="31" transform="rotate(180 155.5 154.5)" fill="#D9D9D9" stroke="#999999"/>
<path d="M155 144.455V124C152.143 127.636 145.036 134.909 139.464 134.909C133.893 134.909 127.5 127.636 125 124V145.818C126.607 148.545 131.75 154 139.464 154C147.179 154 153.036 147.636 155 144.455Z" fill="#010684"/>
<rect x="651.5" y="154.5" width="31" height="31" fill="#D9D9D9" stroke="#999999"/>
<path d="M652 164.545V185C654.857 181.364 661.964 174.091 667.536 174.091C673.107 174.091 679.5 181.364 682 185V163.182C680.393 160.455 675.25 155 667.536 155C659.821 155 653.964 161.364 652 164.545Z" fill="#010684"/>
<rect x="-0.5" y="0.5" width="31" height="31" transform="matrix(1 0 0 -1 249 217)" fill="#D9D9D9" stroke="#999999"/>
<path d="M249 206.455V186C251.857 189.636 258.964 196.909 264.536 196.909C270.107 196.909 276.5 189.636 279 186V207.818C277.393 210.545 272.25 216 264.536 216C256.821 216 250.964 209.636 249 206.455Z" fill="#010684"/>
<rect x="682.5" y="216.5" width="31" height="31" fill="#D9D9D9" stroke="#999999"/>
<path d="M683 226.545V247C685.857 243.364 692.964 236.091 698.536 236.091C704.107 236.091 710.5 243.364 713 247V225.182C711.393 222.455 706.25 217 698.536 217C690.821 217 684.964 223.364 683 226.545Z" fill="#010684"/>
<rect x="-0.5" y="0.5" width="31" height="31" transform="matrix(1 0 0 -1 280 155)" fill="#D9D9D9" stroke="#999999"/>
<path d="M280 144.455V124C282.857 127.636 289.964 134.909 295.536 134.909C301.107 134.909 307.5 127.636 310 124V145.818C308.393 148.545 303.25 154 295.536 154C287.821 154 281.964 147.636 280 144.455Z" fill="#010684"/>
<rect x="0.5" y="-0.5" width="31" height="31" transform="matrix(-1 0 0 1 528 155)" fill="#D9D9D9" stroke="#999999"/>
<path d="M527 164.545V185C524.143 181.364 517.036 174.091 511.464 174.091C505.893 174.091 499.5 181.364 497 185V163.182C498.607 160.455 503.75 155 511.464 155C519.179 155 525.036 161.364 527 164.545Z" fill="#010684"/>
<rect x="124.5" y="216.5" width="31" height="31" transform="rotate(180 124.5 216.5)" fill="#D9D9D9" stroke="#999999"/>
<path d="M124 206.455V186C121.143 189.636 114.036 196.909 108.464 196.909C102.893 196.909 96.5 189.636 94 186V207.818C95.6071 210.545 100.75 216 108.464 216C116.179 216 122.036 209.636 124 206.455Z" fill="#010684"/>
<rect x="0.5" y="-0.5" width="31" height="31" transform="matrix(-1 0 0 1 621 186)" fill="#D9D9D9" stroke="#999999"/>
<path d="M610.783 186L591.034 186C594.545 188.857 601.567 195.964 601.567 201.536C601.567 207.107 594.545 213.5 591.034 216L612.1 216C614.733 214.393 620 209.25 620 201.536C620 193.821 613.855 187.964 610.783 186Z" fill="#010684"/>
<rect x="217.5" y="185.5" width="31" height="31" transform="rotate(180 217.5 185.5)" fill="#D9D9D9" stroke="#999999"/>
<path d="M207.783 185L188.034 185C191.545 182.143 198.567 175.036 198.567 169.464C198.567 163.893 191.545 157.5 188.034 155L209.1 155C211.733 156.607 217 161.75 217 169.464C217 177.179 210.855 183.036 207.783 185Z" fill="#010684"/>
<rect x="589.5" y="123.5" width="31" height="31" fill="#D9D9D9" stroke="#999999"/>
<path d="M599.217 124L618.966 124C615.455 126.857 608.433 133.964 608.433 139.536C608.433 145.107 615.455 151.5 618.966 154L597.9 154C595.267 152.393 590 147.25 590 139.536C590 131.821 596.145 125.964 599.217 124Z" fill="#010684"/>
<rect x="-0.5" y="0.5" width="31" height="31" transform="matrix(1 0 0 -1 187 248)" fill="#D9D9D9" stroke="#999999"/>
<path d="M196.217 247L215.966 247C212.455 244.143 205.433 237.036 205.433 231.464C205.433 225.893 212.455 219.5 215.966 217L194.9 217C192.267 218.607 187 223.75 187 231.464C187 239.179 193.145 245.036 196.217 247Z" fill="#010684"/>
<rect x="682.5" y="185.5" width="31" height="31" fill="#D9D9D9" stroke="#999999"/>
<path d="M692.217 186L711.966 186C708.455 188.857 701.433 195.964 701.433 201.536C701.433 207.107 708.455 213.5 711.966 216L690.9 216C688.267 214.393 683 209.25 683 201.536C683 193.821 689.145 187.964 692.217 186Z" fill="#010684"/>
<rect x="-0.5" y="0.5" width="31" height="31" transform="matrix(1 0 0 -1 280 186)" fill="#D9D9D9" stroke="#999999"/>
<path d="M289.217 185L308.966 185C305.455 182.143 298.433 175.036 298.433 169.464C298.433 163.893 305.455 157.5 308.966 155L287.9 155C285.267 156.607 280 161.75 280 169.464C280 177.179 286.145 183.036 289.217 185Z" fill="#010684"/>
<rect x="0.5" y="-0.5" width="31" height="31" transform="matrix(-1 0 0 1 528 124)" fill="#D9D9D9" stroke="#999999"/>
<path d="M517.783 124L498.034 124C501.545 126.857 508.567 133.964 508.567 139.536C508.567 145.107 501.545 151.5 498.034 154L519.1 154C521.733 152.393 527 147.25 527 139.536C527 131.821 520.855 125.964 517.783 124Z" fill="#010684"/>
<rect x="124.5" y="247.5" width="31" height="31" transform="rotate(180 124.5 247.5)" fill="#D9D9D9" stroke="#999999"/>
<path d="M114.783 247L95.0342 247C98.5452 244.143 105.567 237.036 105.567 231.464C105.567 225.893 98.5452 219.5 95.0342 217L116.1 217C118.733 218.607 124 223.75 124 231.464C124 239.179 117.855 245.036 114.783 247Z" fill="#010684"/>
</svg>
