<svg width="64" height="63" viewBox="0 0 64 63" fill="none" xmlns="http://www.w3.org/2000/svg">
<path fill-rule="evenodd" clip-rule="evenodd" d="M35.499 17.0153C35.9622 17.1417 37.217 17.5965 38.5309 18.405L42.3208 15.6257C42.405 15.4994 42.6745 15.3225 43.0787 15.6257C43.483 15.9289 45.9422 18.3628 47.1213 19.5418C47.2476 19.626 47.4245 19.8955 47.1213 20.2998C46.8181 20.704 45.1421 22.9106 44.342 23.9633C44.7631 24.6792 45.6306 26.3636 45.7317 27.3743L49.7742 28.0059C49.9006 28.0059 50.1532 28.1828 50.1532 28.8902V34.0697C50.1532 34.2382 49.9763 34.6003 49.2689 34.7014C48.5615 34.8024 46.616 34.9961 45.7317 35.0804C45.6053 35.712 45.1506 37.2785 44.342 38.4913L46.616 41.6495C46.7423 41.8601 46.8686 42.4075 46.3633 42.9128C45.858 43.4181 43.7946 45.3973 42.8261 46.3237C42.5734 46.4921 41.967 46.728 41.5628 46.3237C41.1585 45.9195 39.6257 44.7235 38.9099 44.1761C38.4045 44.4709 37.0149 45.1362 35.499 45.4394L34.8673 50.1136C34.8673 50.2399 34.6905 50.5179 33.983 50.6189C33.2756 50.72 30.0668 50.661 28.5508 50.6189C28.4245 50.5768 28.1466 50.4168 28.0455 50.1136C27.9444 49.8104 27.6665 47.0396 27.5402 45.6921C26.7401 45.3973 24.9631 44.6814 24.2556 44.1761L20.7184 46.9554C20.5499 47.0396 20.112 47.1575 19.7077 46.9554C19.3035 46.7532 17.0127 44.4288 15.9179 43.2918C15.7915 43.0812 15.6147 42.5591 15.9179 42.1548C16.221 41.7506 17.8969 39.7125 18.697 38.7439C18.2759 38.0281 17.4084 36.3437 17.3074 35.333L13.1385 34.4487C13.0122 34.4908 12.7595 34.4234 12.7595 33.8171V28.2586C12.8016 28.1322 13.0627 27.8543 13.7701 27.7532C14.4776 27.6522 16.4231 27.4585 17.3074 27.3743C17.3495 26.7005 17.6358 25.1256 18.4443 24.216L16.1704 20.8051C16.0441 20.7209 15.8672 20.4514 16.1704 20.0471C16.4736 19.6429 18.8233 17.3521 19.9603 16.2572C20.1287 16.0888 20.5919 15.853 21.0973 16.2572C21.6026 16.6615 23.3291 17.9416 24.1292 18.5312C24.5924 18.1943 25.8978 17.4699 27.4137 17.2679L28.1717 12.4673C28.2138 12.2989 28.4496 11.962 29.056 11.962H34.3619C34.5724 12.0041 34.9935 12.2147 34.9935 12.72C34.9935 13.2253 35.3305 15.7941 35.499 17.0153ZM31.5825 39.3759C36.1175 39.3759 39.7939 35.6995 39.7939 31.1644C39.7939 26.6294 36.1175 22.953 31.5825 22.953C27.0474 22.953 23.371 26.6294 23.371 31.1644C23.371 35.6995 27.0474 39.3759 31.5825 39.3759Z" fill="#3B5998"/>
<path d="M17.5443 8.77215C17.5443 13.6169 13.6169 17.5443 8.77215 17.5443C3.92743 17.5443 0 13.6169 0 8.77215C0 3.92743 3.92743 0 8.77215 0C13.6169 0 17.5443 3.92743 17.5443 8.77215Z" fill="#3B5998"/>
<path d="M17.5443 54.2278C17.5443 49.3831 13.6169 45.4557 8.77215 45.4557C3.92743 45.4557 0 49.3831 0 54.2278C0 59.0726 3.92743 63 8.77215 63C13.6169 63 17.5443 59.0726 17.5443 54.2278Z" fill="#3B5998"/>
<path d="M45.8544 8.77215C45.8544 13.6169 49.7819 17.5443 54.6266 17.5443C59.4713 17.5443 63.3987 13.6169 63.3987 8.77215C63.3987 3.92743 59.4713 0 54.6266 0C49.7819 0 45.8544 3.92743 45.8544 8.77215Z" fill="#3B5998"/>
<path d="M45.8544 54.2278C45.8544 49.3831 49.7819 45.4557 54.6266 45.4557C59.4713 45.4557 63.3987 49.3831 63.3987 54.2278C63.3987 59.0726 59.4713 63 54.6266 63C49.7819 63 45.8544 59.0726 45.8544 54.2278Z" fill="#3B5998"/>
<path d="M29.1076 8.77215V3.18987C22.7278 4.14684 19.2721 5.71519 18.3418 6.37975C18.9797 17.2253 10.8987 18.8734 6.77848 18.3418C4.22659 22.1696 3.58861 27.3797 3.58861 29.5063H8.77214C8.45315 26.6354 9.4367 24.5886 9.96834 23.924L12.3607 25.519C14.2747 17.2253 21.9304 13.2911 25.519 12.3608L24.3228 9.96835C25.5987 9.01139 28.0443 8.77215 29.1076 8.77215Z" fill="#3B5998"/>
<path d="M29.1076 54.2278V59.8101C22.7278 58.8532 19.2721 57.2848 18.3418 56.6203C18.9797 45.7747 10.8987 44.1266 6.77848 44.6582C4.22659 40.8304 3.58861 35.6203 3.58861 33.4937H8.77214C8.45315 36.3646 9.4367 38.4114 9.96834 39.076L12.3607 37.481C14.2747 45.7747 21.9304 49.7089 25.519 50.6392L24.3228 53.0316C25.5987 53.9886 28.0443 54.2278 29.1076 54.2278Z" fill="#3B5998"/>
<path d="M34.2912 8.77215V3.18987C40.6709 4.14684 44.1266 5.71519 45.057 6.37975C44.419 17.2253 52.5 18.8734 56.6203 18.3418C59.1721 22.1696 59.8101 27.3797 59.8101 29.5063H54.6266C54.9456 26.6354 53.962 24.5886 53.4304 23.924L51.038 25.519C49.1241 17.2253 41.4684 13.2911 37.8798 12.3608L39.076 9.96835C37.8 9.01139 35.3544 8.77215 34.2912 8.77215Z" fill="#3B5998"/>
<path d="M34.2912 54.2278V59.8101C40.6709 58.8532 44.1266 57.2848 45.057 56.6203C44.419 45.7747 52.5 44.1266 56.6203 44.6582C59.1721 40.8304 59.8101 35.6203 59.8101 33.4937H54.6266C54.9456 36.3646 53.962 38.4114 53.4304 39.076L51.038 37.481C49.1241 45.7747 41.4684 49.7089 37.8798 50.6392L39.076 53.0316C37.8 53.9886 35.3544 54.2278 34.2912 54.2278Z" fill="#3B5998"/>
</svg>
