<svg width="97" height="65" viewBox="0 0 97 65" fill="none" xmlns="http://www.w3.org/2000/svg">
<path d="M55.3555 25.1826C54.0628 26.1963 51.5554 26.51 50.4632 26.5402H46.1544C43.3178 26.5402 41.5015 25.6352 40.9479 25.1826C43.1676 23.962 43.21 19.8511 43.2286 18.0475C43.2307 17.8452 43.2325 17.672 43.237 17.5351C43.2819 16.1775 44.3142 13.8697 47.1867 13.3719C49.4847 12.9737 50.1191 13.8395 50.149 14.3222C53.4157 14.1238 53.4382 17.6138 53.4548 20.1848C53.4571 20.5457 53.4593 20.8886 53.4704 21.2005C53.5422 23.2278 54.757 24.7 55.3555 25.1826Z" fill="#3B5998"/>
<path d="M45.1251 28.1244C42.0146 29.3361 39.8104 32.3604 39.8104 35.8996V38.1745H56.4928V35.8996C56.4928 32.4581 54.4085 29.5034 51.4334 28.2288L49.8066 29.8557L48.315 28.3641L46.8399 29.8392L45.1251 28.1244Z" fill="#3B5998"/>
<path fill-rule="evenodd" clip-rule="evenodd" d="M12.9621 0C10.2006 0 7.96207 2.23858 7.96207 5V46.5638C7.96207 49.3253 10.2007 51.5638 12.9621 51.5638H83.341C86.1024 51.5638 88.341 49.3253 88.341 46.5638V5C88.341 2.23858 86.1024 0 83.341 0H12.9621ZM19.4076 7.58292C16.6462 7.58292 14.4076 9.8215 14.4076 12.5829V39.7392C14.4076 42.5006 16.6462 44.7392 19.4076 44.7392H76.5164C79.2778 44.7392 81.5164 42.5006 81.5164 39.7392V12.5829C81.5164 9.8215 79.2778 7.58292 76.5164 7.58292H19.4076Z" fill="#3B5998"/>
<path fill-rule="evenodd" clip-rule="evenodd" d="M0 55.1657H96.4926C96.0503 58.1989 93.3836 64.2652 86.2557 64.2652H10.4265C6.95101 63.8229 0 61.3837 0 55.1657ZM42.948 57.6302C41.8434 57.6302 40.948 58.5256 40.948 59.6302V59.8008C40.948 60.9053 41.8434 61.8008 42.948 61.8008H53.3555C54.4601 61.8008 55.3555 60.9053 55.3555 59.8008V59.6302C55.3555 58.5256 54.4601 57.6302 53.3555 57.6302H42.948Z" fill="#3B5998"/>
</svg>
